ISO-10303-21;
HEADER;
FILE_DESCRIPTION(('FreeCAD Model'),'2;1');
FILE_NAME('Open CASCADE Shape Model','2025-04-25T18:25:22',(''),(''),
  'Open CASCADE STEP processor 7.8','FreeCAD','Unknown');
FILE_SCHEMA(('AUTOMOTIVE_DESIGN { 1 0 10303 214 1 1 1 1 }'));
ENDSEC;
DATA;
#1 = APPLICATION_PROTOCOL_DEFINITION('international standard',
  'automotive_design',2000,#2);
#2 = APPLICATION_CONTEXT(
  'core data for automotive mechanical design processes');
#3 = SHAPE_DEFINITION_REPRESENTATION(#4,#10);
#4 = PRODUCT_DEFINITION_SHAPE('','',#5);
#5 = PRODUCT_DEFINITION('design','',#6,#9);
#6 = PRODUCT_DEFINITION_FORMATION('','',#7);
#7 = PRODUCT('Pocket','Pocket','',(#8));
#8 = PRODUCT_CONTEXT('',#2,'mechanical');
#9 = PRODUCT_DEFINITION_CONTEXT('part definition',#2,'design');
#10 = ADVANCED_BREP_SHAPE_REPRESENTATION('',(#11,#15),#881);
#11 = AXIS2_PLACEMENT_3D('',#12,#13,#14);
#12 = CARTESIAN_POINT('',(0.,0.,0.));
#13 = DIRECTION('',(0.,0.,1.));
#14 = DIRECTION('',(1.,0.,-0.));
#15 = MANIFOLD_SOLID_BREP('',#16);
#16 = CLOSED_SHELL('',(#17,#59,#218,#251,#277,#302,#342,#370,#379,#404,
    #437,#462,#495,#520,#553,#578,#611,#636,#669,#687,#746,#758,#770,
    #782,#802,#827,#847,#872));
#17 = ADVANCED_FACE('',(#18),#54,.F.);
#18 = FACE_BOUND('',#19,.T.);
#19 = EDGE_LOOP('',(#20,#31,#39,#48));
#20 = ORIENTED_EDGE('',*,*,#21,.T.);
#21 = EDGE_CURVE('',#22,#24,#26,.T.);
#22 = VERTEX_POINT('',#23);
#23 = CARTESIAN_POINT('',(1.500000000001,144.83842258208,-26.45751311064
    ));
#24 = VERTEX_POINT('',#25);
#25 = CARTESIAN_POINT('',(26.457513110646,144.83842258208,-1.5));
#26 = CIRCLE('',#27,26.5);
#27 = AXIS2_PLACEMENT_3D('',#28,#29,#30);
#28 = CARTESIAN_POINT('',(0.,144.83842258208,-6.432E-14));
#29 = DIRECTION('',(0.,-1.,4.4E-16));
#30 = DIRECTION('',(1.,0.,0.));
#31 = ORIENTED_EDGE('',*,*,#32,.F.);
#32 = EDGE_CURVE('',#33,#24,#35,.T.);
#33 = VERTEX_POINT('',#34);
#34 = CARTESIAN_POINT('',(27.459060435492,144.83842258208,-1.5));
#35 = LINE('',#36,#37);
#36 = CARTESIAN_POINT('',(45.,144.83842258208,-1.5));
#37 = VECTOR('',#38,1.);
#38 = DIRECTION('',(-1.,0.,0.));
#39 = ORIENTED_EDGE('',*,*,#40,.F.);
#40 = EDGE_CURVE('',#41,#33,#43,.T.);
#41 = VERTEX_POINT('',#42);
#42 = CARTESIAN_POINT('',(1.499999999999,144.83842258208,-27.45906043549
    ));
#43 = CIRCLE('',#44,27.5);
#44 = AXIS2_PLACEMENT_3D('',#45,#46,#47);
#45 = CARTESIAN_POINT('',(0.,144.83842258208,-6.432E-14));
#46 = DIRECTION('',(0.,-1.,4.4E-16));
#47 = DIRECTION('',(1.,0.,0.));
#48 = ORIENTED_EDGE('',*,*,#49,.F.);
#49 = EDGE_CURVE('',#22,#41,#50,.T.);
#50 = LINE('',#51,#52);
#51 = CARTESIAN_POINT('',(1.5,144.83842258208,-24.));
#52 = VECTOR('',#53,1.);
#53 = DIRECTION('',(0.,0.,-1.));
#54 = PLANE('',#55);
#55 = AXIS2_PLACEMENT_3D('',#56,#57,#58);
#56 = CARTESIAN_POINT('',(0.,144.83842258208,-6.432E-14));
#57 = DIRECTION('',(0.,-1.,4.4E-16));
#58 = DIRECTION('',(1.,0.,0.));
#59 = ADVANCED_FACE('',(#60),#213,.F.);
#60 = FACE_BOUND('',#61,.F.);
#61 = EDGE_LOOP('',(#62,#72,#81,#89,#98,#106,#115,#123,#132,#140,#149,
    #157,#166,#172,#173,#181,#190,#198,#205,#206));
#62 = ORIENTED_EDGE('',*,*,#63,.F.);
#63 = EDGE_CURVE('',#64,#66,#68,.T.);
#64 = VERTEX_POINT('',#65);
#65 = CARTESIAN_POINT('',(26.457513110646,144.83842258208,1.5));
#66 = VERTEX_POINT('',#67);
#67 = CARTESIAN_POINT('',(26.457513110646,94.838422582087,1.5));
#68 = LINE('',#69,#70);
#69 = CARTESIAN_POINT('',(26.457513110646,144.83842258208,1.5));
#70 = VECTOR('',#71,1.);
#71 = DIRECTION('',(0.,-1.,4.4E-16));
#72 = ORIENTED_EDGE('',*,*,#73,.T.);
#73 = EDGE_CURVE('',#64,#74,#76,.T.);
#74 = VERTEX_POINT('',#75);
#75 = CARTESIAN_POINT('',(1.500000000001,144.83842258208,26.457513110646
    ));
#76 = CIRCLE('',#77,26.5);
#77 = AXIS2_PLACEMENT_3D('',#78,#79,#80);
#78 = CARTESIAN_POINT('',(0.,144.83842258208,-6.432E-14));
#79 = DIRECTION('',(0.,-1.,4.4E-16));
#80 = DIRECTION('',(1.,0.,0.));
#81 = ORIENTED_EDGE('',*,*,#82,.T.);
#82 = EDGE_CURVE('',#74,#83,#85,.T.);
#83 = VERTEX_POINT('',#84);
#84 = CARTESIAN_POINT('',(1.5,94.838422582087,26.457513110646));
#85 = LINE('',#86,#87);
#86 = CARTESIAN_POINT('',(1.5,144.83842258208,26.457513110646));
#87 = VECTOR('',#88,1.);
#88 = DIRECTION('',(0.,-1.,4.4E-16));
#89 = ORIENTED_EDGE('',*,*,#90,.T.);
#90 = EDGE_CURVE('',#83,#91,#93,.T.);
#91 = VERTEX_POINT('',#92);
#92 = CARTESIAN_POINT('',(-1.5,94.838422582087,26.457513110646));
#93 = CIRCLE('',#94,26.5);
#94 = AXIS2_PLACEMENT_3D('',#95,#96,#97);
#95 = CARTESIAN_POINT('',(0.,94.838422582087,-4.212E-14));
#96 = DIRECTION('',(0.,-1.,4.4E-16));
#97 = DIRECTION('',(1.,0.,0.));
#98 = ORIENTED_EDGE('',*,*,#99,.F.);
#99 = EDGE_CURVE('',#100,#91,#102,.T.);
#100 = VERTEX_POINT('',#101);
#101 = CARTESIAN_POINT('',(-1.5,144.83842258208,26.457513110646));
#102 = LINE('',#103,#104);
#103 = CARTESIAN_POINT('',(-1.5,144.83842258208,26.457513110646));
#104 = VECTOR('',#105,1.);
#105 = DIRECTION('',(0.,-1.,4.4E-16));
#106 = ORIENTED_EDGE('',*,*,#107,.T.);
#107 = EDGE_CURVE('',#100,#108,#110,.T.);
#108 = VERTEX_POINT('',#109);
#109 = CARTESIAN_POINT('',(-26.45751311064,144.83842258208,
    1.499999999999));
#110 = CIRCLE('',#111,26.5);
#111 = AXIS2_PLACEMENT_3D('',#112,#113,#114);
#112 = CARTESIAN_POINT('',(0.,144.83842258208,-6.432E-14));
#113 = DIRECTION('',(0.,-1.,4.4E-16));
#114 = DIRECTION('',(1.,0.,0.));
#115 = ORIENTED_EDGE('',*,*,#116,.T.);
#116 = EDGE_CURVE('',#108,#117,#119,.T.);
#117 = VERTEX_POINT('',#118);
#118 = CARTESIAN_POINT('',(-26.45751311064,94.838422582087,1.5));
#119 = LINE('',#120,#121);
#120 = CARTESIAN_POINT('',(-26.45751311064,144.83842258208,1.5));
#121 = VECTOR('',#122,1.);
#122 = DIRECTION('',(0.,-1.,4.4E-16));
#123 = ORIENTED_EDGE('',*,*,#124,.T.);
#124 = EDGE_CURVE('',#117,#125,#127,.T.);
#125 = VERTEX_POINT('',#126);
#126 = CARTESIAN_POINT('',(-26.45751311064,94.838422582087,-1.5));
#127 = CIRCLE('',#128,26.5);
#128 = AXIS2_PLACEMENT_3D('',#129,#130,#131);
#129 = CARTESIAN_POINT('',(0.,94.838422582087,-4.212E-14));
#130 = DIRECTION('',(0.,-1.,4.4E-16));
#131 = DIRECTION('',(1.,0.,0.));
#132 = ORIENTED_EDGE('',*,*,#133,.F.);
#133 = EDGE_CURVE('',#134,#125,#136,.T.);
#134 = VERTEX_POINT('',#135);
#135 = CARTESIAN_POINT('',(-26.45751311064,144.83842258208,-1.5));
#136 = LINE('',#137,#138);
#137 = CARTESIAN_POINT('',(-26.45751311064,144.83842258208,-1.5));
#138 = VECTOR('',#139,1.);
#139 = DIRECTION('',(0.,-1.,4.4E-16));
#140 = ORIENTED_EDGE('',*,*,#141,.T.);
#141 = EDGE_CURVE('',#134,#142,#144,.T.);
#142 = VERTEX_POINT('',#143);
#143 = CARTESIAN_POINT('',(-1.5,144.83842258208,-26.45751311064));
#144 = CIRCLE('',#145,26.5);
#145 = AXIS2_PLACEMENT_3D('',#146,#147,#148);
#146 = CARTESIAN_POINT('',(0.,144.83842258208,-6.432E-14));
#147 = DIRECTION('',(0.,-1.,4.4E-16));
#148 = DIRECTION('',(1.,0.,0.));
#149 = ORIENTED_EDGE('',*,*,#150,.T.);
#150 = EDGE_CURVE('',#142,#151,#153,.T.);
#151 = VERTEX_POINT('',#152);
#152 = CARTESIAN_POINT('',(-1.5,94.838422582087,-26.45751311064));
#153 = LINE('',#154,#155);
#154 = CARTESIAN_POINT('',(-1.5,144.83842258208,-26.45751311064));
#155 = VECTOR('',#156,1.);
#156 = DIRECTION('',(0.,-1.,4.4E-16));
#157 = ORIENTED_EDGE('',*,*,#158,.T.);
#158 = EDGE_CURVE('',#151,#159,#161,.T.);
#159 = VERTEX_POINT('',#160);
#160 = CARTESIAN_POINT('',(1.5,94.838422582087,-26.45751311064));
#161 = CIRCLE('',#162,26.5);
#162 = AXIS2_PLACEMENT_3D('',#163,#164,#165);
#163 = CARTESIAN_POINT('',(0.,94.838422582087,-4.212E-14));
#164 = DIRECTION('',(0.,-1.,4.4E-16));
#165 = DIRECTION('',(1.,0.,0.));
#166 = ORIENTED_EDGE('',*,*,#167,.F.);
#167 = EDGE_CURVE('',#22,#159,#168,.T.);
#168 = LINE('',#169,#170);
#169 = CARTESIAN_POINT('',(1.5,144.83842258208,-26.45751311064));
#170 = VECTOR('',#171,1.);
#171 = DIRECTION('',(0.,-1.,4.4E-16));
#172 = ORIENTED_EDGE('',*,*,#21,.T.);
#173 = ORIENTED_EDGE('',*,*,#174,.T.);
#174 = EDGE_CURVE('',#24,#175,#177,.T.);
#175 = VERTEX_POINT('',#176);
#176 = CARTESIAN_POINT('',(26.457513110646,94.838422582087,-1.5));
#177 = LINE('',#178,#179);
#178 = CARTESIAN_POINT('',(26.457513110646,144.83842258208,-1.5));
#179 = VECTOR('',#180,1.);
#180 = DIRECTION('',(0.,-1.,4.4E-16));
#181 = ORIENTED_EDGE('',*,*,#182,.T.);
#182 = EDGE_CURVE('',#175,#183,#185,.T.);
#183 = VERTEX_POINT('',#184);
#184 = CARTESIAN_POINT('',(26.5,94.838422582087,-4.2E-14));
#185 = CIRCLE('',#186,26.5);
#186 = AXIS2_PLACEMENT_3D('',#187,#188,#189);
#187 = CARTESIAN_POINT('',(0.,94.838422582087,-4.212E-14));
#188 = DIRECTION('',(0.,-1.,4.4E-16));
#189 = DIRECTION('',(1.,0.,0.));
#190 = ORIENTED_EDGE('',*,*,#191,.T.);
#191 = EDGE_CURVE('',#183,#192,#194,.T.);
#192 = VERTEX_POINT('',#193);
#193 = CARTESIAN_POINT('',(26.5,85.,0.));
#194 = LINE('',#195,#196);
#195 = CARTESIAN_POINT('',(26.5,144.83842258208,0.));
#196 = VECTOR('',#197,1.);
#197 = DIRECTION('',(0.,-1.,0.));
#198 = ORIENTED_EDGE('',*,*,#199,.F.);
#199 = EDGE_CURVE('',#192,#192,#200,.T.);
#200 = CIRCLE('',#201,26.5);
#201 = AXIS2_PLACEMENT_3D('',#202,#203,#204);
#202 = CARTESIAN_POINT('',(0.,85.,-3.775E-14));
#203 = DIRECTION('',(0.,-1.,4.4E-16));
#204 = DIRECTION('',(1.,0.,0.));
#205 = ORIENTED_EDGE('',*,*,#191,.F.);
#206 = ORIENTED_EDGE('',*,*,#207,.T.);
#207 = EDGE_CURVE('',#183,#66,#208,.T.);
#208 = CIRCLE('',#209,26.5);
#209 = AXIS2_PLACEMENT_3D('',#210,#211,#212);
#210 = CARTESIAN_POINT('',(0.,94.838422582087,-4.212E-14));
#211 = DIRECTION('',(0.,-1.,4.4E-16));
#212 = DIRECTION('',(1.,0.,0.));
#213 = CYLINDRICAL_SURFACE('',#214,26.5);
#214 = AXIS2_PLACEMENT_3D('',#215,#216,#217);
#215 = CARTESIAN_POINT('',(0.,144.83842258208,-6.432E-14));
#216 = DIRECTION('',(0.,-1.,4.4E-16));
#217 = DIRECTION('',(1.,0.,0.));
#218 = ADVANCED_FACE('',(#219),#246,.F.);
#219 = FACE_BOUND('',#220,.F.);
#220 = EDGE_LOOP('',(#221,#222,#223,#231,#239));
#221 = ORIENTED_EDGE('',*,*,#49,.F.);
#222 = ORIENTED_EDGE('',*,*,#167,.T.);
#223 = ORIENTED_EDGE('',*,*,#224,.T.);
#224 = EDGE_CURVE('',#159,#225,#227,.T.);
#225 = VERTEX_POINT('',#226);
#226 = CARTESIAN_POINT('',(1.5,94.838422582087,-41.9732057389));
#227 = LINE('',#228,#229);
#228 = CARTESIAN_POINT('',(1.5,94.838422582087,-24.));
#229 = VECTOR('',#230,1.);
#230 = DIRECTION('',(0.,0.,-1.));
#231 = ORIENTED_EDGE('',*,*,#232,.F.);
#232 = EDGE_CURVE('',#233,#225,#235,.T.);
#233 = VERTEX_POINT('',#234);
#234 = CARTESIAN_POINT('',(1.5,105.,-41.9732057389));
#235 = LINE('',#236,#237);
#236 = CARTESIAN_POINT('',(1.5,105.,-41.9732057389));
#237 = VECTOR('',#238,1.);
#238 = DIRECTION('',(0.,-1.,4.4E-16));
#239 = ORIENTED_EDGE('',*,*,#240,.F.);
#240 = EDGE_CURVE('',#41,#233,#241,.T.);
#241 = HYPERBOLA('',#242,4.121216129181,1.5);
#242 = AXIS2_PLACEMENT_3D('',#243,#244,#245);
#243 = CARTESIAN_POINT('',(1.5,220.39405161708,-9.787E-14));
#244 = DIRECTION('',(1.,0.,0.));
#245 = DIRECTION('',(0.,-1.,4.4E-16));
#246 = PLANE('',#247);
#247 = AXIS2_PLACEMENT_3D('',#248,#249,#250);
#248 = CARTESIAN_POINT('',(1.5,144.83842258208,-24.));
#249 = DIRECTION('',(1.,0.,0.));
#250 = DIRECTION('',(0.,-2.2E-16,-1.));
#251 = ADVANCED_FACE('',(#252),#272,.T.);
#252 = FACE_BOUND('',#253,.T.);
#253 = EDGE_LOOP('',(#254,#255,#264,#271));
#254 = ORIENTED_EDGE('',*,*,#40,.T.);
#255 = ORIENTED_EDGE('',*,*,#256,.F.);
#256 = EDGE_CURVE('',#257,#33,#259,.T.);
#257 = VERTEX_POINT('',#258);
#258 = CARTESIAN_POINT('',(41.9732057389,105.,-1.5));
#259 = HYPERBOLA('',#260,4.121216129181,1.5);
#260 = AXIS2_PLACEMENT_3D('',#261,#262,#263);
#261 = CARTESIAN_POINT('',(0.,220.39405161708,-1.5));
#262 = DIRECTION('',(-0.,-2.2E-16,-1.));
#263 = DIRECTION('',(0.,-1.,2.2E-16));
#264 = ORIENTED_EDGE('',*,*,#265,.F.);
#265 = EDGE_CURVE('',#233,#257,#266,.T.);
#266 = CIRCLE('',#267,42.);
#267 = AXIS2_PLACEMENT_3D('',#268,#269,#270);
#268 = CARTESIAN_POINT('',(0.,105.,-4.663E-14));
#269 = DIRECTION('',(0.,-1.,4.4E-16));
#270 = DIRECTION('',(1.,0.,0.));
#271 = ORIENTED_EDGE('',*,*,#240,.F.);
#272 = CONICAL_SURFACE('',#273,27.5,0.349065850399);
#273 = AXIS2_PLACEMENT_3D('',#274,#275,#276);
#274 = CARTESIAN_POINT('',(0.,144.83842258208,-6.432E-14));
#275 = DIRECTION('',(0.,-1.,4.4E-16));
#276 = DIRECTION('',(1.,0.,0.));
#277 = ADVANCED_FACE('',(#278),#297,.F.);
#278 = FACE_BOUND('',#279,.F.);
#279 = EDGE_LOOP('',(#280,#281,#282,#290,#296));
#280 = ORIENTED_EDGE('',*,*,#32,.F.);
#281 = ORIENTED_EDGE('',*,*,#256,.F.);
#282 = ORIENTED_EDGE('',*,*,#283,.T.);
#283 = EDGE_CURVE('',#257,#284,#286,.T.);
#284 = VERTEX_POINT('',#285);
#285 = CARTESIAN_POINT('',(41.9732057389,94.838422582087,-1.5));
#286 = LINE('',#287,#288);
#287 = CARTESIAN_POINT('',(41.9732057389,105.,-1.5));
#288 = VECTOR('',#289,1.);
#289 = DIRECTION('',(0.,-1.,4.4E-16));
#290 = ORIENTED_EDGE('',*,*,#291,.T.);
#291 = EDGE_CURVE('',#284,#175,#292,.T.);
#292 = LINE('',#293,#294);
#293 = CARTESIAN_POINT('',(45.,94.838422582087,-1.5));
#294 = VECTOR('',#295,1.);
#295 = DIRECTION('',(-1.,0.,0.));
#296 = ORIENTED_EDGE('',*,*,#174,.F.);
#297 = PLANE('',#298);
#298 = AXIS2_PLACEMENT_3D('',#299,#300,#301);
#299 = CARTESIAN_POINT('',(45.,144.83842258208,-1.5));
#300 = DIRECTION('',(-0.,-2.2E-16,-1.));
#301 = DIRECTION('',(-1.,0.,0.));
#302 = ADVANCED_FACE('',(#303),#337,.F.);
#303 = FACE_BOUND('',#304,.F.);
#304 = EDGE_LOOP('',(#305,#313,#314,#322,#330));
#305 = ORIENTED_EDGE('',*,*,#306,.F.);
#306 = EDGE_CURVE('',#64,#307,#309,.T.);
#307 = VERTEX_POINT('',#308);
#308 = CARTESIAN_POINT('',(27.459060435492,144.83842258208,1.5));
#309 = LINE('',#310,#311);
#310 = CARTESIAN_POINT('',(24.,144.83842258208,1.5));
#311 = VECTOR('',#312,1.);
#312 = DIRECTION('',(1.,0.,0.));
#313 = ORIENTED_EDGE('',*,*,#63,.T.);
#314 = ORIENTED_EDGE('',*,*,#315,.T.);
#315 = EDGE_CURVE('',#66,#316,#318,.T.);
#316 = VERTEX_POINT('',#317);
#317 = CARTESIAN_POINT('',(41.9732057389,94.838422582087,1.5));
#318 = LINE('',#319,#320);
#319 = CARTESIAN_POINT('',(24.,94.838422582087,1.5));
#320 = VECTOR('',#321,1.);
#321 = DIRECTION('',(1.,0.,0.));
#322 = ORIENTED_EDGE('',*,*,#323,.F.);
#323 = EDGE_CURVE('',#324,#316,#326,.T.);
#324 = VERTEX_POINT('',#325);
#325 = CARTESIAN_POINT('',(41.9732057389,105.,1.5));
#326 = LINE('',#327,#328);
#327 = CARTESIAN_POINT('',(41.9732057389,105.,1.5));
#328 = VECTOR('',#329,1.);
#329 = DIRECTION('',(0.,-1.,4.4E-16));
#330 = ORIENTED_EDGE('',*,*,#331,.F.);
#331 = EDGE_CURVE('',#307,#324,#332,.T.);
#332 = HYPERBOLA('',#333,4.121216129181,1.5);
#333 = AXIS2_PLACEMENT_3D('',#334,#335,#336);
#334 = CARTESIAN_POINT('',(0.,220.39405161708,1.5));
#335 = DIRECTION('',(-0.,2.2E-16,1.));
#336 = DIRECTION('',(0.,-1.,2.2E-16));
#337 = PLANE('',#338);
#338 = AXIS2_PLACEMENT_3D('',#339,#340,#341);
#339 = CARTESIAN_POINT('',(24.,144.83842258208,1.5));
#340 = DIRECTION('',(-0.,2.2E-16,1.));
#341 = DIRECTION('',(1.,0.,0.));
#342 = ADVANCED_FACE('',(#343),#365,.T.);
#343 = FACE_BOUND('',#344,.T.);
#344 = EDGE_LOOP('',(#345,#346,#355,#362,#363,#364));
#345 = ORIENTED_EDGE('',*,*,#315,.T.);
#346 = ORIENTED_EDGE('',*,*,#347,.F.);
#347 = EDGE_CURVE('',#348,#316,#350,.T.);
#348 = VERTEX_POINT('',#349);
#349 = CARTESIAN_POINT('',(42.,94.838422582087,-4.2E-14));
#350 = CIRCLE('',#351,42.);
#351 = AXIS2_PLACEMENT_3D('',#352,#353,#354);
#352 = CARTESIAN_POINT('',(0.,94.838422582087,-4.212E-14));
#353 = DIRECTION('',(0.,-1.,4.4E-16));
#354 = DIRECTION('',(1.,0.,0.));
#355 = ORIENTED_EDGE('',*,*,#356,.F.);
#356 = EDGE_CURVE('',#284,#348,#357,.T.);
#357 = CIRCLE('',#358,42.);
#358 = AXIS2_PLACEMENT_3D('',#359,#360,#361);
#359 = CARTESIAN_POINT('',(0.,94.838422582087,-4.212E-14));
#360 = DIRECTION('',(0.,-1.,4.4E-16));
#361 = DIRECTION('',(1.,0.,0.));
#362 = ORIENTED_EDGE('',*,*,#291,.T.);
#363 = ORIENTED_EDGE('',*,*,#182,.T.);
#364 = ORIENTED_EDGE('',*,*,#207,.T.);
#365 = PLANE('',#366);
#366 = AXIS2_PLACEMENT_3D('',#367,#368,#369);
#367 = CARTESIAN_POINT('',(-3.2E-16,94.838422582087,-2.223E-14));
#368 = DIRECTION('',(0.,1.,0.));
#369 = DIRECTION('',(1.,0.,0.));
#370 = ADVANCED_FACE('',(#371),#374,.F.);
#371 = FACE_BOUND('',#372,.F.);
#372 = EDGE_LOOP('',(#373));
#373 = ORIENTED_EDGE('',*,*,#199,.T.);
#374 = PLANE('',#375);
#375 = AXIS2_PLACEMENT_3D('',#376,#377,#378);
#376 = CARTESIAN_POINT('',(0.,85.,-3.775E-14));
#377 = DIRECTION('',(0.,-1.,4.4E-16));
#378 = DIRECTION('',(1.,0.,0.));
#379 = ADVANCED_FACE('',(#380),#399,.T.);
#380 = FACE_BOUND('',#381,.T.);
#381 = EDGE_LOOP('',(#382,#383,#384,#393));
#382 = ORIENTED_EDGE('',*,*,#158,.T.);
#383 = ORIENTED_EDGE('',*,*,#224,.T.);
#384 = ORIENTED_EDGE('',*,*,#385,.F.);
#385 = EDGE_CURVE('',#386,#225,#388,.T.);
#386 = VERTEX_POINT('',#387);
#387 = CARTESIAN_POINT('',(-1.5,94.838422582087,-41.9732057389));
#388 = CIRCLE('',#389,42.);
#389 = AXIS2_PLACEMENT_3D('',#390,#391,#392);
#390 = CARTESIAN_POINT('',(0.,94.838422582087,-4.212E-14));
#391 = DIRECTION('',(0.,-1.,4.4E-16));
#392 = DIRECTION('',(1.,0.,0.));
#393 = ORIENTED_EDGE('',*,*,#394,.T.);
#394 = EDGE_CURVE('',#386,#151,#395,.T.);
#395 = LINE('',#396,#397);
#396 = CARTESIAN_POINT('',(-1.5,94.838422582087,-45.));
#397 = VECTOR('',#398,1.);
#398 = DIRECTION('',(0.,0.,1.));
#399 = PLANE('',#400);
#400 = AXIS2_PLACEMENT_3D('',#401,#402,#403);
#401 = CARTESIAN_POINT('',(-3.2E-16,94.838422582087,-2.223E-14));
#402 = DIRECTION('',(0.,1.,0.));
#403 = DIRECTION('',(1.,0.,0.));
#404 = ADVANCED_FACE('',(#405),#432,.F.);
#405 = FACE_BOUND('',#406,.F.);
#406 = EDGE_LOOP('',(#407,#415,#424,#430,#431));
#407 = ORIENTED_EDGE('',*,*,#408,.F.);
#408 = EDGE_CURVE('',#409,#142,#411,.T.);
#409 = VERTEX_POINT('',#410);
#410 = CARTESIAN_POINT('',(-1.499999999999,144.83842258208,
    -27.45906043549));
#411 = LINE('',#412,#413);
#412 = CARTESIAN_POINT('',(-1.5,144.83842258208,-45.));
#413 = VECTOR('',#414,1.);
#414 = DIRECTION('',(0.,0.,1.));
#415 = ORIENTED_EDGE('',*,*,#416,.F.);
#416 = EDGE_CURVE('',#417,#409,#419,.T.);
#417 = VERTEX_POINT('',#418);
#418 = CARTESIAN_POINT('',(-1.5,105.,-41.9732057389));
#419 = HYPERBOLA('',#420,4.121216129181,1.5);
#420 = AXIS2_PLACEMENT_3D('',#421,#422,#423);
#421 = CARTESIAN_POINT('',(-1.5,220.39405161708,-9.787E-14));
#422 = DIRECTION('',(-1.,0.,0.));
#423 = DIRECTION('',(0.,-1.,4.4E-16));
#424 = ORIENTED_EDGE('',*,*,#425,.T.);
#425 = EDGE_CURVE('',#417,#386,#426,.T.);
#426 = LINE('',#427,#428);
#427 = CARTESIAN_POINT('',(-1.5,105.,-41.9732057389));
#428 = VECTOR('',#429,1.);
#429 = DIRECTION('',(0.,-1.,4.4E-16));
#430 = ORIENTED_EDGE('',*,*,#394,.T.);
#431 = ORIENTED_EDGE('',*,*,#150,.F.);
#432 = PLANE('',#433);
#433 = AXIS2_PLACEMENT_3D('',#434,#435,#436);
#434 = CARTESIAN_POINT('',(-1.5,144.83842258208,-45.));
#435 = DIRECTION('',(-1.,0.,0.));
#436 = DIRECTION('',(0.,2.2E-16,1.));
#437 = ADVANCED_FACE('',(#438),#457,.F.);
#438 = FACE_BOUND('',#439,.T.);
#439 = EDGE_LOOP('',(#440,#441,#442,#451));
#440 = ORIENTED_EDGE('',*,*,#141,.T.);
#441 = ORIENTED_EDGE('',*,*,#408,.F.);
#442 = ORIENTED_EDGE('',*,*,#443,.F.);
#443 = EDGE_CURVE('',#444,#409,#446,.T.);
#444 = VERTEX_POINT('',#445);
#445 = CARTESIAN_POINT('',(-27.45906043549,144.83842258208,-1.5));
#446 = CIRCLE('',#447,27.5);
#447 = AXIS2_PLACEMENT_3D('',#448,#449,#450);
#448 = CARTESIAN_POINT('',(0.,144.83842258208,-6.432E-14));
#449 = DIRECTION('',(0.,-1.,4.4E-16));
#450 = DIRECTION('',(1.,0.,0.));
#451 = ORIENTED_EDGE('',*,*,#452,.F.);
#452 = EDGE_CURVE('',#134,#444,#453,.T.);
#453 = LINE('',#454,#455);
#454 = CARTESIAN_POINT('',(-24.,144.83842258208,-1.5));
#455 = VECTOR('',#456,1.);
#456 = DIRECTION('',(-1.,0.,0.));
#457 = PLANE('',#458);
#458 = AXIS2_PLACEMENT_3D('',#459,#460,#461);
#459 = CARTESIAN_POINT('',(0.,144.83842258208,-6.432E-14));
#460 = DIRECTION('',(0.,-1.,4.4E-16));
#461 = DIRECTION('',(1.,0.,0.));
#462 = ADVANCED_FACE('',(#463),#490,.F.);
#463 = FACE_BOUND('',#464,.F.);
#464 = EDGE_LOOP('',(#465,#466,#467,#475,#483));
#465 = ORIENTED_EDGE('',*,*,#452,.F.);
#466 = ORIENTED_EDGE('',*,*,#133,.T.);
#467 = ORIENTED_EDGE('',*,*,#468,.T.);
#468 = EDGE_CURVE('',#125,#469,#471,.T.);
#469 = VERTEX_POINT('',#470);
#470 = CARTESIAN_POINT('',(-41.9732057389,94.838422582087,-1.5));
#471 = LINE('',#472,#473);
#472 = CARTESIAN_POINT('',(-24.,94.838422582087,-1.5));
#473 = VECTOR('',#474,1.);
#474 = DIRECTION('',(-1.,0.,0.));
#475 = ORIENTED_EDGE('',*,*,#476,.F.);
#476 = EDGE_CURVE('',#477,#469,#479,.T.);
#477 = VERTEX_POINT('',#478);
#478 = CARTESIAN_POINT('',(-41.9732057389,105.,-1.5));
#479 = LINE('',#480,#481);
#480 = CARTESIAN_POINT('',(-41.9732057389,105.,-1.5));
#481 = VECTOR('',#482,1.);
#482 = DIRECTION('',(0.,-1.,4.4E-16));
#483 = ORIENTED_EDGE('',*,*,#484,.F.);
#484 = EDGE_CURVE('',#444,#477,#485,.T.);
#485 = HYPERBOLA('',#486,4.121216129181,1.5);
#486 = AXIS2_PLACEMENT_3D('',#487,#488,#489);
#487 = CARTESIAN_POINT('',(0.,220.39405161708,-1.5));
#488 = DIRECTION('',(-0.,-2.2E-16,-1.));
#489 = DIRECTION('',(0.,-1.,2.2E-16));
#490 = PLANE('',#491);
#491 = AXIS2_PLACEMENT_3D('',#492,#493,#494);
#492 = CARTESIAN_POINT('',(-24.,144.83842258208,-1.5));
#493 = DIRECTION('',(-0.,-2.2E-16,-1.));
#494 = DIRECTION('',(-1.,0.,0.));
#495 = ADVANCED_FACE('',(#496),#515,.T.);
#496 = FACE_BOUND('',#497,.T.);
#497 = EDGE_LOOP('',(#498,#506,#507,#508));
#498 = ORIENTED_EDGE('',*,*,#499,.T.);
#499 = EDGE_CURVE('',#500,#117,#502,.T.);
#500 = VERTEX_POINT('',#501);
#501 = CARTESIAN_POINT('',(-41.9732057389,94.838422582087,1.5));
#502 = LINE('',#503,#504);
#503 = CARTESIAN_POINT('',(-45.,94.838422582087,1.5));
#504 = VECTOR('',#505,1.);
#505 = DIRECTION('',(1.,0.,0.));
#506 = ORIENTED_EDGE('',*,*,#124,.T.);
#507 = ORIENTED_EDGE('',*,*,#468,.T.);
#508 = ORIENTED_EDGE('',*,*,#509,.F.);
#509 = EDGE_CURVE('',#500,#469,#510,.T.);
#510 = CIRCLE('',#511,42.);
#511 = AXIS2_PLACEMENT_3D('',#512,#513,#514);
#512 = CARTESIAN_POINT('',(0.,94.838422582087,-4.212E-14));
#513 = DIRECTION('',(0.,-1.,4.4E-16));
#514 = DIRECTION('',(1.,0.,0.));
#515 = PLANE('',#516);
#516 = AXIS2_PLACEMENT_3D('',#517,#518,#519);
#517 = CARTESIAN_POINT('',(-3.2E-16,94.838422582087,-2.223E-14));
#518 = DIRECTION('',(0.,1.,0.));
#519 = DIRECTION('',(1.,0.,0.));
#520 = ADVANCED_FACE('',(#521),#548,.F.);
#521 = FACE_BOUND('',#522,.F.);
#522 = EDGE_LOOP('',(#523,#531,#540,#546,#547));
#523 = ORIENTED_EDGE('',*,*,#524,.F.);
#524 = EDGE_CURVE('',#525,#108,#527,.T.);
#525 = VERTEX_POINT('',#526);
#526 = CARTESIAN_POINT('',(-27.45906043549,144.83842258208,1.5));
#527 = LINE('',#528,#529);
#528 = CARTESIAN_POINT('',(-45.,144.83842258208,1.5));
#529 = VECTOR('',#530,1.);
#530 = DIRECTION('',(1.,0.,0.));
#531 = ORIENTED_EDGE('',*,*,#532,.F.);
#532 = EDGE_CURVE('',#533,#525,#535,.T.);
#533 = VERTEX_POINT('',#534);
#534 = CARTESIAN_POINT('',(-41.9732057389,105.,1.5));
#535 = HYPERBOLA('',#536,4.121216129181,1.5);
#536 = AXIS2_PLACEMENT_3D('',#537,#538,#539);
#537 = CARTESIAN_POINT('',(0.,220.39405161708,1.5));
#538 = DIRECTION('',(-0.,2.2E-16,1.));
#539 = DIRECTION('',(0.,-1.,2.2E-16));
#540 = ORIENTED_EDGE('',*,*,#541,.T.);
#541 = EDGE_CURVE('',#533,#500,#542,.T.);
#542 = LINE('',#543,#544);
#543 = CARTESIAN_POINT('',(-41.9732057389,105.,1.5));
#544 = VECTOR('',#545,1.);
#545 = DIRECTION('',(0.,-1.,4.4E-16));
#546 = ORIENTED_EDGE('',*,*,#499,.T.);
#547 = ORIENTED_EDGE('',*,*,#116,.F.);
#548 = PLANE('',#549);
#549 = AXIS2_PLACEMENT_3D('',#550,#551,#552);
#550 = CARTESIAN_POINT('',(-45.,144.83842258208,1.5));
#551 = DIRECTION('',(-0.,2.2E-16,1.));
#552 = DIRECTION('',(1.,0.,0.));
#553 = ADVANCED_FACE('',(#554),#573,.F.);
#554 = FACE_BOUND('',#555,.T.);
#555 = EDGE_LOOP('',(#556,#564,#565,#566));
#556 = ORIENTED_EDGE('',*,*,#557,.F.);
#557 = EDGE_CURVE('',#100,#558,#560,.T.);
#558 = VERTEX_POINT('',#559);
#559 = CARTESIAN_POINT('',(-1.499999999999,144.83842258208,
    27.459060435492));
#560 = LINE('',#561,#562);
#561 = CARTESIAN_POINT('',(-1.5,144.83842258208,24.));
#562 = VECTOR('',#563,1.);
#563 = DIRECTION('',(0.,0.,1.));
#564 = ORIENTED_EDGE('',*,*,#107,.T.);
#565 = ORIENTED_EDGE('',*,*,#524,.F.);
#566 = ORIENTED_EDGE('',*,*,#567,.F.);
#567 = EDGE_CURVE('',#558,#525,#568,.T.);
#568 = CIRCLE('',#569,27.5);
#569 = AXIS2_PLACEMENT_3D('',#570,#571,#572);
#570 = CARTESIAN_POINT('',(0.,144.83842258208,-6.432E-14));
#571 = DIRECTION('',(0.,-1.,4.4E-16));
#572 = DIRECTION('',(1.,0.,0.));
#573 = PLANE('',#574);
#574 = AXIS2_PLACEMENT_3D('',#575,#576,#577);
#575 = CARTESIAN_POINT('',(0.,144.83842258208,-6.432E-14));
#576 = DIRECTION('',(0.,-1.,4.4E-16));
#577 = DIRECTION('',(1.,0.,0.));
#578 = ADVANCED_FACE('',(#579),#606,.F.);
#579 = FACE_BOUND('',#580,.F.);
#580 = EDGE_LOOP('',(#581,#582,#583,#591,#599));
#581 = ORIENTED_EDGE('',*,*,#557,.F.);
#582 = ORIENTED_EDGE('',*,*,#99,.T.);
#583 = ORIENTED_EDGE('',*,*,#584,.T.);
#584 = EDGE_CURVE('',#91,#585,#587,.T.);
#585 = VERTEX_POINT('',#586);
#586 = CARTESIAN_POINT('',(-1.5,94.838422582087,41.9732057389));
#587 = LINE('',#588,#589);
#588 = CARTESIAN_POINT('',(-1.5,94.838422582087,24.));
#589 = VECTOR('',#590,1.);
#590 = DIRECTION('',(0.,0.,1.));
#591 = ORIENTED_EDGE('',*,*,#592,.F.);
#592 = EDGE_CURVE('',#593,#585,#595,.T.);
#593 = VERTEX_POINT('',#594);
#594 = CARTESIAN_POINT('',(-1.5,105.,41.9732057389));
#595 = LINE('',#596,#597);
#596 = CARTESIAN_POINT('',(-1.5,105.,41.9732057389));
#597 = VECTOR('',#598,1.);
#598 = DIRECTION('',(0.,-1.,4.4E-16));
#599 = ORIENTED_EDGE('',*,*,#600,.F.);
#600 = EDGE_CURVE('',#558,#593,#601,.T.);
#601 = HYPERBOLA('',#602,4.121216129181,1.5);
#602 = AXIS2_PLACEMENT_3D('',#603,#604,#605);
#603 = CARTESIAN_POINT('',(-1.5,220.39405161708,-9.787E-14));
#604 = DIRECTION('',(-1.,0.,0.));
#605 = DIRECTION('',(0.,-1.,4.4E-16));
#606 = PLANE('',#607);
#607 = AXIS2_PLACEMENT_3D('',#608,#609,#610);
#608 = CARTESIAN_POINT('',(-1.5,144.83842258208,24.));
#609 = DIRECTION('',(-1.,0.,0.));
#610 = DIRECTION('',(0.,2.2E-16,1.));
#611 = ADVANCED_FACE('',(#612),#631,.T.);
#612 = FACE_BOUND('',#613,.T.);
#613 = EDGE_LOOP('',(#614,#623,#629,#630));
#614 = ORIENTED_EDGE('',*,*,#615,.F.);
#615 = EDGE_CURVE('',#616,#585,#618,.T.);
#616 = VERTEX_POINT('',#617);
#617 = CARTESIAN_POINT('',(1.5,94.838422582087,41.9732057389));
#618 = CIRCLE('',#619,42.);
#619 = AXIS2_PLACEMENT_3D('',#620,#621,#622);
#620 = CARTESIAN_POINT('',(0.,94.838422582087,-4.212E-14));
#621 = DIRECTION('',(0.,-1.,4.4E-16));
#622 = DIRECTION('',(1.,0.,0.));
#623 = ORIENTED_EDGE('',*,*,#624,.T.);
#624 = EDGE_CURVE('',#616,#83,#625,.T.);
#625 = LINE('',#626,#627);
#626 = CARTESIAN_POINT('',(1.5,94.838422582087,45.));
#627 = VECTOR('',#628,1.);
#628 = DIRECTION('',(0.,0.,-1.));
#629 = ORIENTED_EDGE('',*,*,#90,.T.);
#630 = ORIENTED_EDGE('',*,*,#584,.T.);
#631 = PLANE('',#632);
#632 = AXIS2_PLACEMENT_3D('',#633,#634,#635);
#633 = CARTESIAN_POINT('',(-3.2E-16,94.838422582087,-2.223E-14));
#634 = DIRECTION('',(0.,1.,0.));
#635 = DIRECTION('',(1.,0.,0.));
#636 = ADVANCED_FACE('',(#637),#664,.F.);
#637 = FACE_BOUND('',#638,.F.);
#638 = EDGE_LOOP('',(#639,#647,#656,#662,#663));
#639 = ORIENTED_EDGE('',*,*,#640,.F.);
#640 = EDGE_CURVE('',#641,#74,#643,.T.);
#641 = VERTEX_POINT('',#642);
#642 = CARTESIAN_POINT('',(1.499999999999,144.83842258208,
    27.459060435492));
#643 = LINE('',#644,#645);
#644 = CARTESIAN_POINT('',(1.5,144.83842258208,45.));
#645 = VECTOR('',#646,1.);
#646 = DIRECTION('',(0.,0.,-1.));
#647 = ORIENTED_EDGE('',*,*,#648,.F.);
#648 = EDGE_CURVE('',#649,#641,#651,.T.);
#649 = VERTEX_POINT('',#650);
#650 = CARTESIAN_POINT('',(1.5,105.,41.9732057389));
#651 = HYPERBOLA('',#652,4.121216129181,1.5);
#652 = AXIS2_PLACEMENT_3D('',#653,#654,#655);
#653 = CARTESIAN_POINT('',(1.5,220.39405161708,-9.787E-14));
#654 = DIRECTION('',(1.,0.,0.));
#655 = DIRECTION('',(0.,-1.,4.4E-16));
#656 = ORIENTED_EDGE('',*,*,#657,.T.);
#657 = EDGE_CURVE('',#649,#616,#658,.T.);
#658 = LINE('',#659,#660);
#659 = CARTESIAN_POINT('',(1.5,105.,41.9732057389));
#660 = VECTOR('',#661,1.);
#661 = DIRECTION('',(0.,-1.,4.4E-16));
#662 = ORIENTED_EDGE('',*,*,#624,.T.);
#663 = ORIENTED_EDGE('',*,*,#82,.F.);
#664 = PLANE('',#665);
#665 = AXIS2_PLACEMENT_3D('',#666,#667,#668);
#666 = CARTESIAN_POINT('',(1.5,144.83842258208,45.));
#667 = DIRECTION('',(1.,0.,0.));
#668 = DIRECTION('',(0.,-2.2E-16,-1.));
#669 = ADVANCED_FACE('',(#670),#682,.F.);
#670 = FACE_BOUND('',#671,.T.);
#671 = EDGE_LOOP('',(#672,#673,#674,#675));
#672 = ORIENTED_EDGE('',*,*,#306,.F.);
#673 = ORIENTED_EDGE('',*,*,#73,.T.);
#674 = ORIENTED_EDGE('',*,*,#640,.F.);
#675 = ORIENTED_EDGE('',*,*,#676,.F.);
#676 = EDGE_CURVE('',#307,#641,#677,.T.);
#677 = CIRCLE('',#678,27.5);
#678 = AXIS2_PLACEMENT_3D('',#679,#680,#681);
#679 = CARTESIAN_POINT('',(0.,144.83842258208,-6.432E-14));
#680 = DIRECTION('',(0.,-1.,4.4E-16));
#681 = DIRECTION('',(1.,0.,0.));
#682 = PLANE('',#683);
#683 = AXIS2_PLACEMENT_3D('',#684,#685,#686);
#684 = CARTESIAN_POINT('',(0.,144.83842258208,-6.432E-14));
#685 = DIRECTION('',(0.,-1.,4.4E-16));
#686 = DIRECTION('',(1.,0.,0.));
#687 = ADVANCED_FACE('',(#688),#741,.T.);
#688 = FACE_BOUND('',#689,.T.);
#689 = EDGE_LOOP('',(#690,#691,#698,#699,#700,#701,#708,#709,#710,#711,
    #718,#719,#720,#721,#722,#723,#724,#732,#739,#740));
#690 = ORIENTED_EDGE('',*,*,#323,.F.);
#691 = ORIENTED_EDGE('',*,*,#692,.T.);
#692 = EDGE_CURVE('',#324,#649,#693,.T.);
#693 = CIRCLE('',#694,42.);
#694 = AXIS2_PLACEMENT_3D('',#695,#696,#697);
#695 = CARTESIAN_POINT('',(0.,105.,-4.663E-14));
#696 = DIRECTION('',(0.,-1.,4.4E-16));
#697 = DIRECTION('',(1.,0.,0.));
#698 = ORIENTED_EDGE('',*,*,#657,.T.);
#699 = ORIENTED_EDGE('',*,*,#615,.T.);
#700 = ORIENTED_EDGE('',*,*,#592,.F.);
#701 = ORIENTED_EDGE('',*,*,#702,.T.);
#702 = EDGE_CURVE('',#593,#533,#703,.T.);
#703 = CIRCLE('',#704,42.);
#704 = AXIS2_PLACEMENT_3D('',#705,#706,#707);
#705 = CARTESIAN_POINT('',(0.,105.,-4.663E-14));
#706 = DIRECTION('',(0.,-1.,4.4E-16));
#707 = DIRECTION('',(1.,0.,0.));
#708 = ORIENTED_EDGE('',*,*,#541,.T.);
#709 = ORIENTED_EDGE('',*,*,#509,.T.);
#710 = ORIENTED_EDGE('',*,*,#476,.F.);
#711 = ORIENTED_EDGE('',*,*,#712,.T.);
#712 = EDGE_CURVE('',#477,#417,#713,.T.);
#713 = CIRCLE('',#714,42.);
#714 = AXIS2_PLACEMENT_3D('',#715,#716,#717);
#715 = CARTESIAN_POINT('',(0.,105.,-4.663E-14));
#716 = DIRECTION('',(0.,-1.,4.4E-16));
#717 = DIRECTION('',(1.,0.,0.));
#718 = ORIENTED_EDGE('',*,*,#425,.T.);
#719 = ORIENTED_EDGE('',*,*,#385,.T.);
#720 = ORIENTED_EDGE('',*,*,#232,.F.);
#721 = ORIENTED_EDGE('',*,*,#265,.T.);
#722 = ORIENTED_EDGE('',*,*,#283,.T.);
#723 = ORIENTED_EDGE('',*,*,#356,.T.);
#724 = ORIENTED_EDGE('',*,*,#725,.T.);
#725 = EDGE_CURVE('',#348,#726,#728,.T.);
#726 = VERTEX_POINT('',#727);
#727 = CARTESIAN_POINT('',(42.,80.,0.));
#728 = LINE('',#729,#730);
#729 = CARTESIAN_POINT('',(42.,105.,0.));
#730 = VECTOR('',#731,1.);
#731 = DIRECTION('',(0.,-1.,0.));
#732 = ORIENTED_EDGE('',*,*,#733,.F.);
#733 = EDGE_CURVE('',#726,#726,#734,.T.);
#734 = CIRCLE('',#735,42.);
#735 = AXIS2_PLACEMENT_3D('',#736,#737,#738);
#736 = CARTESIAN_POINT('',(0.,80.,-3.553E-14));
#737 = DIRECTION('',(0.,-1.,4.4E-16));
#738 = DIRECTION('',(1.,0.,0.));
#739 = ORIENTED_EDGE('',*,*,#725,.F.);
#740 = ORIENTED_EDGE('',*,*,#347,.T.);
#741 = CYLINDRICAL_SURFACE('',#742,42.);
#742 = AXIS2_PLACEMENT_3D('',#743,#744,#745);
#743 = CARTESIAN_POINT('',(0.,105.,-4.663E-14));
#744 = DIRECTION('',(0.,-1.,4.4E-16));
#745 = DIRECTION('',(1.,0.,0.));
#746 = ADVANCED_FACE('',(#747),#753,.T.);
#747 = FACE_BOUND('',#748,.T.);
#748 = EDGE_LOOP('',(#749,#750,#751,#752));
#749 = ORIENTED_EDGE('',*,*,#331,.F.);
#750 = ORIENTED_EDGE('',*,*,#676,.T.);
#751 = ORIENTED_EDGE('',*,*,#648,.F.);
#752 = ORIENTED_EDGE('',*,*,#692,.F.);
#753 = CONICAL_SURFACE('',#754,27.5,0.349065850399);
#754 = AXIS2_PLACEMENT_3D('',#755,#756,#757);
#755 = CARTESIAN_POINT('',(0.,144.83842258208,-6.432E-14));
#756 = DIRECTION('',(0.,-1.,4.4E-16));
#757 = DIRECTION('',(1.,0.,0.));
#758 = ADVANCED_FACE('',(#759),#765,.T.);
#759 = FACE_BOUND('',#760,.T.);
#760 = EDGE_LOOP('',(#761,#762,#763,#764));
#761 = ORIENTED_EDGE('',*,*,#443,.T.);
#762 = ORIENTED_EDGE('',*,*,#416,.F.);
#763 = ORIENTED_EDGE('',*,*,#712,.F.);
#764 = ORIENTED_EDGE('',*,*,#484,.F.);
#765 = CONICAL_SURFACE('',#766,27.5,0.349065850399);
#766 = AXIS2_PLACEMENT_3D('',#767,#768,#769);
#767 = CARTESIAN_POINT('',(0.,144.83842258208,-6.432E-14));
#768 = DIRECTION('',(0.,-1.,4.4E-16));
#769 = DIRECTION('',(1.,0.,0.));
#770 = ADVANCED_FACE('',(#771),#777,.T.);
#771 = FACE_BOUND('',#772,.T.);
#772 = EDGE_LOOP('',(#773,#774,#775,#776));
#773 = ORIENTED_EDGE('',*,*,#600,.F.);
#774 = ORIENTED_EDGE('',*,*,#567,.T.);
#775 = ORIENTED_EDGE('',*,*,#532,.F.);
#776 = ORIENTED_EDGE('',*,*,#702,.F.);
#777 = CONICAL_SURFACE('',#778,27.5,0.349065850399);
#778 = AXIS2_PLACEMENT_3D('',#779,#780,#781);
#779 = CARTESIAN_POINT('',(0.,144.83842258208,-6.432E-14));
#780 = DIRECTION('',(0.,-1.,4.4E-16));
#781 = DIRECTION('',(1.,0.,0.));
#782 = ADVANCED_FACE('',(#783,#786),#797,.T.);
#783 = FACE_BOUND('',#784,.T.);
#784 = EDGE_LOOP('',(#785));
#785 = ORIENTED_EDGE('',*,*,#733,.T.);
#786 = FACE_BOUND('',#787,.T.);
#787 = EDGE_LOOP('',(#788));
#788 = ORIENTED_EDGE('',*,*,#789,.F.);
#789 = EDGE_CURVE('',#790,#790,#792,.T.);
#790 = VERTEX_POINT('',#791);
#791 = CARTESIAN_POINT('',(40.,80.,0.));
#792 = CIRCLE('',#793,40.);
#793 = AXIS2_PLACEMENT_3D('',#794,#795,#796);
#794 = CARTESIAN_POINT('',(0.,80.,-3.553E-14));
#795 = DIRECTION('',(0.,-1.,4.4E-16));
#796 = DIRECTION('',(1.,0.,0.));
#797 = PLANE('',#798);
#798 = AXIS2_PLACEMENT_3D('',#799,#800,#801);
#799 = CARTESIAN_POINT('',(0.,80.,-3.553E-14));
#800 = DIRECTION('',(0.,-1.,4.4E-16));
#801 = DIRECTION('',(1.,0.,0.));
#802 = ADVANCED_FACE('',(#803),#822,.T.);
#803 = FACE_BOUND('',#804,.T.);
#804 = EDGE_LOOP('',(#805,#806,#814,#821));
#805 = ORIENTED_EDGE('',*,*,#789,.T.);
#806 = ORIENTED_EDGE('',*,*,#807,.T.);
#807 = EDGE_CURVE('',#790,#808,#810,.T.);
#808 = VERTEX_POINT('',#809);
#809 = CARTESIAN_POINT('',(40.,0.,0.));
#810 = LINE('',#811,#812);
#811 = CARTESIAN_POINT('',(40.,80.,0.));
#812 = VECTOR('',#813,1.);
#813 = DIRECTION('',(0.,-1.,0.));
#814 = ORIENTED_EDGE('',*,*,#815,.F.);
#815 = EDGE_CURVE('',#808,#808,#816,.T.);
#816 = CIRCLE('',#817,40.);
#817 = AXIS2_PLACEMENT_3D('',#818,#819,#820);
#818 = CARTESIAN_POINT('',(0.,0.,0.));
#819 = DIRECTION('',(0.,-1.,4.4E-16));
#820 = DIRECTION('',(1.,0.,0.));
#821 = ORIENTED_EDGE('',*,*,#807,.F.);
#822 = CYLINDRICAL_SURFACE('',#823,40.);
#823 = AXIS2_PLACEMENT_3D('',#824,#825,#826);
#824 = CARTESIAN_POINT('',(0.,80.,-3.553E-14));
#825 = DIRECTION('',(0.,-1.,4.4E-16));
#826 = DIRECTION('',(1.,0.,0.));
#827 = ADVANCED_FACE('',(#828,#831),#842,.T.);
#828 = FACE_BOUND('',#829,.T.);
#829 = EDGE_LOOP('',(#830));
#830 = ORIENTED_EDGE('',*,*,#815,.T.);
#831 = FACE_BOUND('',#832,.T.);
#832 = EDGE_LOOP('',(#833));
#833 = ORIENTED_EDGE('',*,*,#834,.F.);
#834 = EDGE_CURVE('',#835,#835,#837,.T.);
#835 = VERTEX_POINT('',#836);
#836 = CARTESIAN_POINT('',(35.,0.,0.));
#837 = CIRCLE('',#838,35.);
#838 = AXIS2_PLACEMENT_3D('',#839,#840,#841);
#839 = CARTESIAN_POINT('',(0.,0.,0.));
#840 = DIRECTION('',(0.,-1.,4.4E-16));
#841 = DIRECTION('',(1.,0.,0.));
#842 = PLANE('',#843);
#843 = AXIS2_PLACEMENT_3D('',#844,#845,#846);
#844 = CARTESIAN_POINT('',(0.,0.,0.));
#845 = DIRECTION('',(0.,-1.,4.4E-16));
#846 = DIRECTION('',(1.,0.,0.));
#847 = ADVANCED_FACE('',(#848),#867,.F.);
#848 = FACE_BOUND('',#849,.T.);
#849 = EDGE_LOOP('',(#850,#851,#859,#866));
#850 = ORIENTED_EDGE('',*,*,#834,.T.);
#851 = ORIENTED_EDGE('',*,*,#852,.T.);
#852 = EDGE_CURVE('',#835,#853,#855,.T.);
#853 = VERTEX_POINT('',#854);
#854 = CARTESIAN_POINT('',(35.,50.,0.));
#855 = LINE('',#856,#857);
#856 = CARTESIAN_POINT('',(35.,0.,0.));
#857 = VECTOR('',#858,1.);
#858 = DIRECTION('',(0.,1.,0.));
#859 = ORIENTED_EDGE('',*,*,#860,.F.);
#860 = EDGE_CURVE('',#853,#853,#861,.T.);
#861 = CIRCLE('',#862,35.);
#862 = AXIS2_PLACEMENT_3D('',#863,#864,#865);
#863 = CARTESIAN_POINT('',(0.,50.,-2.22E-14));
#864 = DIRECTION('',(0.,-1.,4.4E-16));
#865 = DIRECTION('',(1.,0.,0.));
#866 = ORIENTED_EDGE('',*,*,#852,.F.);
#867 = CYLINDRICAL_SURFACE('',#868,35.);
#868 = AXIS2_PLACEMENT_3D('',#869,#870,#871);
#869 = CARTESIAN_POINT('',(0.,0.,0.));
#870 = DIRECTION('',(0.,1.,-4.4E-16));
#871 = DIRECTION('',(1.,0.,0.));
#872 = ADVANCED_FACE('',(#873),#876,.T.);
#873 = FACE_BOUND('',#874,.T.);
#874 = EDGE_LOOP('',(#875));
#875 = ORIENTED_EDGE('',*,*,#860,.T.);
#876 = PLANE('',#877);
#877 = AXIS2_PLACEMENT_3D('',#878,#879,#880);
#878 = CARTESIAN_POINT('',(0.,50.,-2.22E-14));
#879 = DIRECTION('',(0.,-1.,4.4E-16));
#880 = DIRECTION('',(1.,0.,0.));
#881 = ( GEOMETRIC_REPRESENTATION_CONTEXT(3) 
GLOBAL_UNCERTAINTY_ASSIGNED_CONTEXT((#885)) GLOBAL_UNIT_ASSIGNED_CONTEXT
((#882,#883,#884)) REPRESENTATION_CONTEXT('Context #1',
  '3D Context with UNIT and UNCERTAINTY') );
#882 = ( LENGTH_UNIT() NAMED_UNIT(*) SI_UNIT(.MILLI.,.METRE.) );
#883 = ( NAMED_UNIT(*) PLANE_ANGLE_UNIT() SI_UNIT($,.RADIAN.) );
#884 = ( NAMED_UNIT(*) SI_UNIT($,.STERADIAN.) SOLID_ANGLE_UNIT() );
#885 = UNCERTAINTY_MEASURE_WITH_UNIT(LENGTH_MEASURE(1.E-07),#882,
  'distance_accuracy_value','confusion accuracy');
#886 = PRODUCT_RELATED_PRODUCT_CATEGORY('part',$,(#7));
#887 = MECHANICAL_DESIGN_GEOMETRIC_PRESENTATION_REPRESENTATION('',(#888)
  ,#881);
#888 = STYLED_ITEM('color',(#889),#15);
#889 = PRESENTATION_STYLE_ASSIGNMENT((#890,#896));
#890 = SURFACE_STYLE_USAGE(.BOTH.,#891);
#891 = SURFACE_SIDE_STYLE('',(#892));
#892 = SURFACE_STYLE_FILL_AREA(#893);
#893 = FILL_AREA_STYLE('',(#894));
#894 = FILL_AREA_STYLE_COLOUR('',#895);
#895 = COLOUR_RGB('',0.97254901356,0.258823539696,0.462745104622);
#896 = CURVE_STYLE('',#897,POSITIVE_LENGTH_MEASURE(0.1),#898);
#897 = DRAUGHTING_PRE_DEFINED_CURVE_FONT('continuous');
#898 = COLOUR_RGB('',9.803921802644E-02,9.803921802644E-02,
  9.803921802644E-02);
ENDSEC;
END-ISO-10303-21;
