ISO-10303-21;
HEADER;
FILE_DESCRIPTION(('FreeCAD Model'),'2;1');
FILE_NAME('Open CASCADE Shape Model','2025-04-25T18:54:51',(''),(''),
  'Open CASCADE STEP processor 7.8','FreeCAD','Unknown');
FILE_SCHEMA(('AUTOMOTIVE_DESIGN { 1 0 10303 214 1 1 1 1 }'));
ENDSEC;
DATA;
#1 = APPLICATION_PROTOCOL_DEFINITION('international standard',
  'automotive_design',2000,#2);
#2 = APPLICATION_CONTEXT(
  'core data for automotive mechanical design processes');
#3 = SHAPE_DEFINITION_REPRESENTATION(#4,#10);
#4 = PRODUCT_DEFINITION_SHAPE('','',#5);
#5 = PRODUCT_DEFINITION('design','',#6,#9);
#6 = PRODUCT_DEFINITION_FORMATION('','',#7);
#7 = PRODUCT('nosecone','nosecone','',(#8));
#8 = PRODUCT_CONTEXT('',#2,'mechanical');
#9 = PRODUCT_DEFINITION_CONTEXT('part definition',#2,'design');
#10 = SHAPE_REPRESENTATION('',(#11,#15,#19),#23);
#11 = AXIS2_PLACEMENT_3D('',#12,#13,#14);
#12 = CARTESIAN_POINT('',(0.,0.,0.));
#13 = DIRECTION('',(0.,0.,1.));
#14 = DIRECTION('',(1.,0.,-0.));
#15 = AXIS2_PLACEMENT_3D('',#16,#17,#18);
#16 = CARTESIAN_POINT('',(-199.5,0.,0.));
#17 = DIRECTION('',(0.,0.,1.));
#18 = DIRECTION('',(1.,0.,0.));
#19 = AXIS2_PLACEMENT_3D('',#20,#21,#22);
#20 = CARTESIAN_POINT('',(0.,0.,0.));
#21 = DIRECTION('',(0.,0.,1.));
#22 = DIRECTION('',(1.,0.,0.));
#23 = ( GEOMETRIC_REPRESENTATION_CONTEXT(3) 
GLOBAL_UNCERTAINTY_ASSIGNED_CONTEXT((#27)) GLOBAL_UNIT_ASSIGNED_CONTEXT(
(#24,#25,#26)) REPRESENTATION_CONTEXT('Context #1',
  '3D Context with UNIT and UNCERTAINTY') );
#24 = ( LENGTH_UNIT() NAMED_UNIT(*) SI_UNIT(.MILLI.,.METRE.) );
#25 = ( NAMED_UNIT(*) PLANE_ANGLE_UNIT() SI_UNIT($,.RADIAN.) );
#26 = ( NAMED_UNIT(*) SI_UNIT($,.STERADIAN.) SOLID_ANGLE_UNIT() );
#27 = UNCERTAINTY_MEASURE_WITH_UNIT(LENGTH_MEASURE(1.E-07),#24,
  'distance_accuracy_value','confusion accuracy');
#28 = PRODUCT_RELATED_PRODUCT_CATEGORY('part',$,(#7));
#29 = SHAPE_DEFINITION_REPRESENTATION(#30,#36);
#30 = PRODUCT_DEFINITION_SHAPE('','',#31);
#31 = PRODUCT_DEFINITION('design','',#32,#35);
#32 = PRODUCT_DEFINITION_FORMATION('','',#33);
#33 = PRODUCT('NoseCone','NoseCone','',(#34));
#34 = PRODUCT_CONTEXT('',#2,'mechanical');
#35 = PRODUCT_DEFINITION_CONTEXT('part definition',#2,'design');
#36 = ADVANCED_BREP_SHAPE_REPRESENTATION('',(#11,#37),#501);
#37 = MANIFOLD_SOLID_BREP('',#38);
#38 = CLOSED_SHELL('',(#39,#264,#284));
#39 = ADVANCED_FACE('',(#40),#158,.T.);
#40 = FACE_BOUND('',#41,.T.);
#41 = EDGE_LOOP('',(#42,#150,#157));
#42 = ORIENTED_EDGE('',*,*,#43,.T.);
#43 = EDGE_CURVE('',#44,#46,#48,.T.);
#44 = VERTEX_POINT('',#45);
#45 = CARTESIAN_POINT('',(0.,0.,0.));
#46 = VERTEX_POINT('',#47);
#47 = CARTESIAN_POINT('',(120.,26.5,0.));
#48 = B_SPLINE_CURVE_WITH_KNOTS('',3,(#49,#50,#51,#52,#53,#54,#55,#56,
    #57,#58,#59,#60,#61,#62,#63,#64,#65,#66,#67,#68,#69,#70,#71,#72,#73,
    #74,#75,#76,#77,#78,#79,#80,#81,#82,#83,#84,#85,#86,#87,#88,#89,#90,
    #91,#92,#93,#94,#95,#96,#97,#98,#99,#100,#101,#102,#103,#104,#105,
    #106,#107,#108,#109,#110,#111,#112,#113,#114,#115,#116,#117,#118,
    #119,#120,#121,#122,#123,#124,#125,#126,#127,#128,#129,#130,#131,
    #132,#133,#134,#135,#136,#137,#138,#139,#140,#141,#142,#143,#144,
    #145,#146,#147,#148,#149),.UNSPECIFIED.,.F.,.F.,(4,1,1,1,1,1,1,1,1,1
    ,1,1,1,1,1,1,1,1,1,1,1,1,1,1,1,1,1,1,1,1,1,1,1,1,1,1,1,1,1,1,1,1,1,1
    ,1,1,1,1,1,1,1,1,1,1,1,1,1,1,1,1,1,1,1,1,1,1,1,1,1,1,1,1,1,1,1,1,1,1
    ,1,1,1,1,1,1,1,1,1,1,1,1,1,1,1,1,1,1,1,1,4),(0.,1.020408163265E-02,
    2.040816326531E-02,3.061224489796E-02,4.081632653061E-02,
    5.102040816327E-02,6.122448979592E-02,7.142857142857E-02,
    8.163265306122E-02,9.183673469388E-02,0.102040816327,0.112244897959,
    0.122448979592,0.132653061224,0.142857142857,0.15306122449,
    0.163265306122,0.173469387755,0.183673469388,0.19387755102,
    0.204081632653,0.214285714286,0.224489795918,0.234693877551,
    0.244897959184,0.255102040816,0.265306122449,0.275510204082,
    0.285714285714,0.295918367347,0.30612244898,0.316326530612,
    0.326530612245,0.336734693878,0.34693877551,0.357142857143,
    0.367346938776,0.377551020408,0.387755102041,0.397959183673,
    0.408163265306,0.418367346939,0.428571428571,0.438775510204,
    0.448979591837,0.459183673469,0.469387755102,0.479591836735,
    0.489795918367,0.5,0.510204081633,0.520408163265,0.530612244898,
    0.540816326531,0.551020408163,0.561224489796,0.571428571429,
    0.581632653061,0.591836734694,0.602040816327,0.612244897959,
    0.622448979592,0.632653061224,0.642857142857,0.65306122449,
    0.663265306122,0.673469387755,0.683673469388,0.69387755102,
    0.704081632653,0.714285714286,0.724489795918,0.734693877551,
    0.744897959184,0.755102040816,0.765306122449,0.775510204082,
    0.785714285714,0.795918367347,0.80612244898,0.816326530612,
    0.826530612245,0.836734693878,0.84693877551,0.857142857143,
    0.867346938776,0.877551020408,0.887755102041,0.897959183673,
    0.908163265306,0.918367346939,0.928571428571,0.938775510204,
    0.948979591837,0.959183673469,0.969387755102,0.979591836735,
    0.989795918367,1.),.QUASI_UNIFORM_KNOTS.);
#49 = CARTESIAN_POINT('',(0.,0.,0.));
#50 = CARTESIAN_POINT('',(1.2,1.09022643774,0.));
#51 = CARTESIAN_POINT('',(2.4,1.830759398873,0.));
#52 = CARTESIAN_POINT('',(3.6,2.47763529847,0.));
#53 = CARTESIAN_POINT('',(4.8,3.069549410695,0.));
#54 = CARTESIAN_POINT('',(6.,3.623145739082,0.));
#55 = CARTESIAN_POINT('',(7.2,4.147589879498,0.));
#56 = CARTESIAN_POINT('',(8.4,4.648633431364,0.));
#57 = CARTESIAN_POINT('',(9.6,5.130195672344,0.));
#58 = CARTESIAN_POINT('',(10.8,5.595104279875,0.));
#59 = CARTESIAN_POINT('',(12.,6.045486959306,0.));
#60 = CARTESIAN_POINT('',(13.2,6.48299722963,0.));
#61 = CARTESIAN_POINT('',(14.4,6.908953375276,0.));
#62 = CARTESIAN_POINT('',(15.6,7.324428443739,0.));
#63 = CARTESIAN_POINT('',(16.8,7.730310987419,0.));
#64 = CARTESIAN_POINT('',(18.,8.1273474754,0.));
#65 = CARTESIAN_POINT('',(19.2,8.516172761956,0.));
#66 = CARTESIAN_POINT('',(20.4,8.897332512146,0.));
#67 = CARTESIAN_POINT('',(21.6,9.271300056061,0.));
#68 = CARTESIAN_POINT('',(22.8,9.638489288449,0.));
#69 = CARTESIAN_POINT('',(24.,9.999264700727,0.));
#70 = CARTESIAN_POINT('',(25.2,10.35394929412,0.));
#71 = CARTESIAN_POINT('',(26.4,10.702830900741,0.));
#72 = CARTESIAN_POINT('',(27.6,11.046167290429,0.));
#73 = CARTESIAN_POINT('',(28.8,11.384190338909,0.));
#74 = CARTESIAN_POINT('',(30.,11.717109461418,0.));
#75 = CARTESIAN_POINT('',(31.2,12.04511446509,0.));
#76 = CARTESIAN_POINT('',(32.4,12.368377936743,0.));
#77 = CARTESIAN_POINT('',(33.6,12.687057255779,0.));
#78 = CARTESIAN_POINT('',(34.8,13.00129630202,0.));
#79 = CARTESIAN_POINT('',(36.,13.311226913266,0.));
#80 = CARTESIAN_POINT('',(37.2,13.61697013602,0.));
#81 = CARTESIAN_POINT('',(38.4,13.918637304102,0.));
#82 = CARTESIAN_POINT('',(39.6,14.216330973083,0.));
#83 = CARTESIAN_POINT('',(40.8,14.510145733238,0.));
#84 = CARTESIAN_POINT('',(42.,14.800168919518,0.));
#85 = CARTESIAN_POINT('',(43.2,15.086481233755,0.));
#86 = CARTESIAN_POINT('',(44.4,15.369157291685,0.));
#87 = CARTESIAN_POINT('',(45.6,15.648266105225,0.));
#88 = CARTESIAN_POINT('',(46.8,15.923871508727,0.));
#89 = CARTESIAN_POINT('',(48.,16.196032536535,0.));
#90 = CARTESIAN_POINT('',(49.2,16.464803758002,0.));
#91 = CARTESIAN_POINT('',(50.4,16.730235575179,0.));
#92 = CARTESIAN_POINT('',(51.6,16.992374487602,0.));
#93 = CARTESIAN_POINT('',(52.8,17.251263327932,0.));
#94 = CARTESIAN_POINT('',(54.,17.506941471666,0.));
#95 = CARTESIAN_POINT('',(55.2,17.759445023651,0.));
#96 = CARTESIAN_POINT('',(56.4,18.008806983749,0.));
#97 = CARTESIAN_POINT('',(57.6,18.255057393661,0.));
#98 = CARTESIAN_POINT('',(58.8,18.498223466625,0.));
#99 = CARTESIAN_POINT('',(60.,18.738329701444,0.));
#100 = CARTESIAN_POINT('',(61.2,18.975397982093,0.));
#101 = CARTESIAN_POINT('',(62.4,19.209447663953,0.));
#102 = CARTESIAN_POINT('',(63.6,19.440495647542,0.));
#103 = CARTESIAN_POINT('',(64.8,19.668556440469,0.));
#104 = CARTESIAN_POINT('',(66.,19.893642208194,0.));
#105 = CARTESIAN_POINT('',(67.2,20.115762814031,0.));
#106 = CARTESIAN_POINT('',(68.4,20.334925848724,0.));
#107 = CARTESIAN_POINT('',(69.6,20.551136649806,0.));
#108 = CARTESIAN_POINT('',(70.8,20.764398310822,0.));
#109 = CARTESIAN_POINT('',(72.,20.97471168039,0.));
#110 = CARTESIAN_POINT('',(73.2,21.182075350955,0.));
#111 = CARTESIAN_POINT('',(74.4,21.386485636964,0.));
#112 = CARTESIAN_POINT('',(75.6,21.587936542047,0.));
#113 = CARTESIAN_POINT('',(76.8,21.786419714666,0.));
#114 = CARTESIAN_POINT('',(78.,21.981924391503,0.));
#115 = CARTESIAN_POINT('',(79.2,22.174437327702,0.));
#116 = CARTESIAN_POINT('',(80.4,22.363942712853,0.));
#117 = CARTESIAN_POINT('',(81.6,22.550422071369,0.));
#118 = CARTESIAN_POINT('',(82.8,22.733854145629,0.));
#119 = CARTESIAN_POINT('',(84.,22.914214759916,0.));
#120 = CARTESIAN_POINT('',(85.2,23.091476662766,0.));
#121 = CARTESIAN_POINT('',(86.4,23.265609344881,0.));
#122 = CARTESIAN_POINT('',(87.6,23.436578829127,0.));
#123 = CARTESIAN_POINT('',(88.8,23.604347428448,0.));
#124 = CARTESIAN_POINT('',(90.,23.768873466556,0.));
#125 = CARTESIAN_POINT('',(91.2,23.930110955185,0.));
#126 = CARTESIAN_POINT('',(92.4,24.088009220188,0.));
#127 = CARTESIAN_POINT('',(93.6,24.242512466948,0.));
#128 = CARTESIAN_POINT('',(94.8,24.393559273193,0.));
#129 = CARTESIAN_POINT('',(96.,24.541081994175,0.));
#130 = CARTESIAN_POINT('',(97.2,24.685006061098,0.));
#131 = CARTESIAN_POINT('',(98.4,24.825249148206,0.));
#132 = CARTESIAN_POINT('',(99.6,24.961720176468,0.));
#133 = CARTESIAN_POINT('',(100.8,25.094318111647,0.));
#134 = CARTESIAN_POINT('',(102.,25.222930500125,0.));
#135 = CARTESIAN_POINT('',(103.2,25.347431665512,0.));
#136 = CARTESIAN_POINT('',(104.4,25.467680459212,0.));
#137 = CARTESIAN_POINT('',(105.6,25.583517413723,0.));
#138 = CARTESIAN_POINT('',(106.8,25.694761079267,0.));
#139 = CARTESIAN_POINT('',(108.,25.801203216611,0.));
#140 = CARTESIAN_POINT('',(109.2,25.902602342184,0.));
#141 = CARTESIAN_POINT('',(110.4,25.998674819372,0.));
#142 = CARTESIAN_POINT('',(111.6,26.089082146001,0.));
#143 = CARTESIAN_POINT('',(112.8,26.17341204718,0.));
#144 = CARTESIAN_POINT('',(114.,26.251148831115,0.));
#145 = CARTESIAN_POINT('',(115.2,26.32162355204,0.));
#146 = CARTESIAN_POINT('',(116.4,26.383921682111,0.));
#147 = CARTESIAN_POINT('',(117.6,26.436685117908,0.));
#148 = CARTESIAN_POINT('',(118.8,26.477564206597,0.));
#149 = CARTESIAN_POINT('',(120.,26.5,0.));
#150 = ORIENTED_EDGE('',*,*,#151,.F.);
#151 = EDGE_CURVE('',#46,#46,#152,.T.);
#152 = CIRCLE('',#153,26.5);
#153 = AXIS2_PLACEMENT_3D('',#154,#155,#156);
#154 = CARTESIAN_POINT('',(120.,0.,0.));
#155 = DIRECTION('',(1.,0.,0.));
#156 = DIRECTION('',(-0.,1.,0.));
#157 = ORIENTED_EDGE('',*,*,#43,.F.);
#158 = SURFACE_OF_REVOLUTION('',#159,#261);
#159 = B_SPLINE_CURVE_WITH_KNOTS('',3,(#160,#161,#162,#163,#164,#165,
    #166,#167,#168,#169,#170,#171,#172,#173,#174,#175,#176,#177,#178,
    #179,#180,#181,#182,#183,#184,#185,#186,#187,#188,#189,#190,#191,
    #192,#193,#194,#195,#196,#197,#198,#199,#200,#201,#202,#203,#204,
    #205,#206,#207,#208,#209,#210,#211,#212,#213,#214,#215,#216,#217,
    #218,#219,#220,#221,#222,#223,#224,#225,#226,#227,#228,#229,#230,
    #231,#232,#233,#234,#235,#236,#237,#238,#239,#240,#241,#242,#243,
    #244,#245,#246,#247,#248,#249,#250,#251,#252,#253,#254,#255,#256,
    #257,#258,#259,#260),.UNSPECIFIED.,.F.,.F.,(4,1,1,1,1,1,1,1,1,1,1,1,
    1,1,1,1,1,1,1,1,1,1,1,1,1,1,1,1,1,1,1,1,1,1,1,1,1,1,1,1,1,1,1,1,1,1,
    1,1,1,1,1,1,1,1,1,1,1,1,1,1,1,1,1,1,1,1,1,1,1,1,1,1,1,1,1,1,1,1,1,1,
    1,1,1,1,1,1,1,1,1,1,1,1,1,1,1,1,1,1,4),(0.,1.020408163265E-02,
    2.040816326531E-02,3.061224489796E-02,4.081632653061E-02,
    5.102040816327E-02,6.122448979592E-02,7.142857142857E-02,
    8.163265306122E-02,9.183673469388E-02,0.102040816327,0.112244897959,
    0.122448979592,0.132653061224,0.142857142857,0.15306122449,
    0.163265306122,0.173469387755,0.183673469388,0.19387755102,
    0.204081632653,0.214285714286,0.224489795918,0.234693877551,
    0.244897959184,0.255102040816,0.265306122449,0.275510204082,
    0.285714285714,0.295918367347,0.30612244898,0.316326530612,
    0.326530612245,0.336734693878,0.34693877551,0.357142857143,
    0.367346938776,0.377551020408,0.387755102041,0.397959183673,
    0.408163265306,0.418367346939,0.428571428571,0.438775510204,
    0.448979591837,0.459183673469,0.469387755102,0.479591836735,
    0.489795918367,0.5,0.510204081633,0.520408163265,0.530612244898,
    0.540816326531,0.551020408163,0.561224489796,0.571428571429,
    0.581632653061,0.591836734694,0.602040816327,0.612244897959,
    0.622448979592,0.632653061224,0.642857142857,0.65306122449,
    0.663265306122,0.673469387755,0.683673469388,0.69387755102,
    0.704081632653,0.714285714286,0.724489795918,0.734693877551,
    0.744897959184,0.755102040816,0.765306122449,0.775510204082,
    0.785714285714,0.795918367347,0.80612244898,0.816326530612,
    0.826530612245,0.836734693878,0.84693877551,0.857142857143,
    0.867346938776,0.877551020408,0.887755102041,0.897959183673,
    0.908163265306,0.918367346939,0.928571428571,0.938775510204,
    0.948979591837,0.959183673469,0.969387755102,0.979591836735,
    0.989795918367,1.),.QUASI_UNIFORM_KNOTS.);
#160 = CARTESIAN_POINT('',(0.,0.,0.));
#161 = CARTESIAN_POINT('',(1.2,1.09022643774,0.));
#162 = CARTESIAN_POINT('',(2.4,1.830759398873,0.));
#163 = CARTESIAN_POINT('',(3.6,2.47763529847,0.));
#164 = CARTESIAN_POINT('',(4.8,3.069549410695,0.));
#165 = CARTESIAN_POINT('',(6.,3.623145739082,0.));
#166 = CARTESIAN_POINT('',(7.2,4.147589879498,0.));
#167 = CARTESIAN_POINT('',(8.4,4.648633431364,0.));
#168 = CARTESIAN_POINT('',(9.6,5.130195672344,0.));
#169 = CARTESIAN_POINT('',(10.8,5.595104279875,0.));
#170 = CARTESIAN_POINT('',(12.,6.045486959306,0.));
#171 = CARTESIAN_POINT('',(13.2,6.48299722963,0.));
#172 = CARTESIAN_POINT('',(14.4,6.908953375276,0.));
#173 = CARTESIAN_POINT('',(15.6,7.324428443739,0.));
#174 = CARTESIAN_POINT('',(16.8,7.730310987419,0.));
#175 = CARTESIAN_POINT('',(18.,8.1273474754,0.));
#176 = CARTESIAN_POINT('',(19.2,8.516172761956,0.));
#177 = CARTESIAN_POINT('',(20.4,8.897332512146,0.));
#178 = CARTESIAN_POINT('',(21.6,9.271300056061,0.));
#179 = CARTESIAN_POINT('',(22.8,9.638489288449,0.));
#180 = CARTESIAN_POINT('',(24.,9.999264700727,0.));
#181 = CARTESIAN_POINT('',(25.2,10.35394929412,0.));
#182 = CARTESIAN_POINT('',(26.4,10.702830900741,0.));
#183 = CARTESIAN_POINT('',(27.6,11.046167290429,0.));
#184 = CARTESIAN_POINT('',(28.8,11.384190338909,0.));
#185 = CARTESIAN_POINT('',(30.,11.717109461418,0.));
#186 = CARTESIAN_POINT('',(31.2,12.04511446509,0.));
#187 = CARTESIAN_POINT('',(32.4,12.368377936743,0.));
#188 = CARTESIAN_POINT('',(33.6,12.687057255779,0.));
#189 = CARTESIAN_POINT('',(34.8,13.00129630202,0.));
#190 = CARTESIAN_POINT('',(36.,13.311226913266,0.));
#191 = CARTESIAN_POINT('',(37.2,13.61697013602,0.));
#192 = CARTESIAN_POINT('',(38.4,13.918637304102,0.));
#193 = CARTESIAN_POINT('',(39.6,14.216330973083,0.));
#194 = CARTESIAN_POINT('',(40.8,14.510145733238,0.));
#195 = CARTESIAN_POINT('',(42.,14.800168919518,0.));
#196 = CARTESIAN_POINT('',(43.2,15.086481233755,0.));
#197 = CARTESIAN_POINT('',(44.4,15.369157291685,0.));
#198 = CARTESIAN_POINT('',(45.6,15.648266105225,0.));
#199 = CARTESIAN_POINT('',(46.8,15.923871508727,0.));
#200 = CARTESIAN_POINT('',(48.,16.196032536535,0.));
#201 = CARTESIAN_POINT('',(49.2,16.464803758002,0.));
#202 = CARTESIAN_POINT('',(50.4,16.730235575179,0.));
#203 = CARTESIAN_POINT('',(51.6,16.992374487602,0.));
#204 = CARTESIAN_POINT('',(52.8,17.251263327932,0.));
#205 = CARTESIAN_POINT('',(54.,17.506941471666,0.));
#206 = CARTESIAN_POINT('',(55.2,17.759445023651,0.));
#207 = CARTESIAN_POINT('',(56.4,18.008806983749,0.));
#208 = CARTESIAN_POINT('',(57.6,18.255057393661,0.));
#209 = CARTESIAN_POINT('',(58.8,18.498223466625,0.));
#210 = CARTESIAN_POINT('',(60.,18.738329701444,0.));
#211 = CARTESIAN_POINT('',(61.2,18.975397982093,0.));
#212 = CARTESIAN_POINT('',(62.4,19.209447663953,0.));
#213 = CARTESIAN_POINT('',(63.6,19.440495647542,0.));
#214 = CARTESIAN_POINT('',(64.8,19.668556440469,0.));
#215 = CARTESIAN_POINT('',(66.,19.893642208194,0.));
#216 = CARTESIAN_POINT('',(67.2,20.115762814031,0.));
#217 = CARTESIAN_POINT('',(68.4,20.334925848724,0.));
#218 = CARTESIAN_POINT('',(69.6,20.551136649806,0.));
#219 = CARTESIAN_POINT('',(70.8,20.764398310822,0.));
#220 = CARTESIAN_POINT('',(72.,20.97471168039,0.));
#221 = CARTESIAN_POINT('',(73.2,21.182075350955,0.));
#222 = CARTESIAN_POINT('',(74.4,21.386485636964,0.));
#223 = CARTESIAN_POINT('',(75.6,21.587936542047,0.));
#224 = CARTESIAN_POINT('',(76.8,21.786419714666,0.));
#225 = CARTESIAN_POINT('',(78.,21.981924391503,0.));
#226 = CARTESIAN_POINT('',(79.2,22.174437327702,0.));
#227 = CARTESIAN_POINT('',(80.4,22.363942712853,0.));
#228 = CARTESIAN_POINT('',(81.6,22.550422071369,0.));
#229 = CARTESIAN_POINT('',(82.8,22.733854145629,0.));
#230 = CARTESIAN_POINT('',(84.,22.914214759916,0.));
#231 = CARTESIAN_POINT('',(85.2,23.091476662766,0.));
#232 = CARTESIAN_POINT('',(86.4,23.265609344881,0.));
#233 = CARTESIAN_POINT('',(87.6,23.436578829127,0.));
#234 = CARTESIAN_POINT('',(88.8,23.604347428448,0.));
#235 = CARTESIAN_POINT('',(90.,23.768873466556,0.));
#236 = CARTESIAN_POINT('',(91.2,23.930110955185,0.));
#237 = CARTESIAN_POINT('',(92.4,24.088009220188,0.));
#238 = CARTESIAN_POINT('',(93.6,24.242512466948,0.));
#239 = CARTESIAN_POINT('',(94.8,24.393559273193,0.));
#240 = CARTESIAN_POINT('',(96.,24.541081994175,0.));
#241 = CARTESIAN_POINT('',(97.2,24.685006061098,0.));
#242 = CARTESIAN_POINT('',(98.4,24.825249148206,0.));
#243 = CARTESIAN_POINT('',(99.6,24.961720176468,0.));
#244 = CARTESIAN_POINT('',(100.8,25.094318111647,0.));
#245 = CARTESIAN_POINT('',(102.,25.222930500125,0.));
#246 = CARTESIAN_POINT('',(103.2,25.347431665512,0.));
#247 = CARTESIAN_POINT('',(104.4,25.467680459212,0.));
#248 = CARTESIAN_POINT('',(105.6,25.583517413723,0.));
#249 = CARTESIAN_POINT('',(106.8,25.694761079267,0.));
#250 = CARTESIAN_POINT('',(108.,25.801203216611,0.));
#251 = CARTESIAN_POINT('',(109.2,25.902602342184,0.));
#252 = CARTESIAN_POINT('',(110.4,25.998674819372,0.));
#253 = CARTESIAN_POINT('',(111.6,26.089082146001,0.));
#254 = CARTESIAN_POINT('',(112.8,26.17341204718,0.));
#255 = CARTESIAN_POINT('',(114.,26.251148831115,0.));
#256 = CARTESIAN_POINT('',(115.2,26.32162355204,0.));
#257 = CARTESIAN_POINT('',(116.4,26.383921682111,0.));
#258 = CARTESIAN_POINT('',(117.6,26.436685117908,0.));
#259 = CARTESIAN_POINT('',(118.8,26.477564206597,0.));
#260 = CARTESIAN_POINT('',(120.,26.5,0.));
#261 = AXIS1_PLACEMENT('',#262,#263);
#262 = CARTESIAN_POINT('',(0.,0.,0.));
#263 = DIRECTION('',(1.,0.,0.));
#264 = ADVANCED_FACE('',(#265,#268),#279,.T.);
#265 = FACE_BOUND('',#266,.T.);
#266 = EDGE_LOOP('',(#267));
#267 = ORIENTED_EDGE('',*,*,#151,.T.);
#268 = FACE_BOUND('',#269,.T.);
#269 = EDGE_LOOP('',(#270));
#270 = ORIENTED_EDGE('',*,*,#271,.F.);
#271 = EDGE_CURVE('',#272,#272,#274,.T.);
#272 = VERTEX_POINT('',#273);
#273 = CARTESIAN_POINT('',(120.,23.5,0.));
#274 = CIRCLE('',#275,23.5);
#275 = AXIS2_PLACEMENT_3D('',#276,#277,#278);
#276 = CARTESIAN_POINT('',(120.,0.,0.));
#277 = DIRECTION('',(1.,0.,0.));
#278 = DIRECTION('',(-0.,1.,0.));
#279 = PLANE('',#280);
#280 = AXIS2_PLACEMENT_3D('',#281,#282,#283);
#281 = CARTESIAN_POINT('',(120.,0.,0.));
#282 = DIRECTION('',(1.,0.,0.));
#283 = DIRECTION('',(-0.,1.,0.));
#284 = ADVANCED_FACE('',(#285),#395,.F.);
#285 = FACE_BOUND('',#286,.F.);
#286 = EDGE_LOOP('',(#287,#393,#394));
#287 = ORIENTED_EDGE('',*,*,#288,.T.);
#288 = EDGE_CURVE('',#289,#272,#291,.T.);
#289 = VERTEX_POINT('',#290);
#290 = CARTESIAN_POINT('',(4.658203125,0.,0.));
#291 = B_SPLINE_CURVE_WITH_KNOTS('',3,(#292,#293,#294,#295,#296,#297,
    #298,#299,#300,#301,#302,#303,#304,#305,#306,#307,#308,#309,#310,
    #311,#312,#313,#314,#315,#316,#317,#318,#319,#320,#321,#322,#323,
    #324,#325,#326,#327,#328,#329,#330,#331,#332,#333,#334,#335,#336,
    #337,#338,#339,#340,#341,#342,#343,#344,#345,#346,#347,#348,#349,
    #350,#351,#352,#353,#354,#355,#356,#357,#358,#359,#360,#361,#362,
    #363,#364,#365,#366,#367,#368,#369,#370,#371,#372,#373,#374,#375,
    #376,#377,#378,#379,#380,#381,#382,#383,#384,#385,#386,#387,#388,
    #389,#390,#391,#392),.UNSPECIFIED.,.F.,.F.,(4,1,1,1,1,1,1,1,1,1,1,1,
    1,1,1,1,1,1,1,1,1,1,1,1,1,1,1,1,1,1,1,1,1,1,1,1,1,1,1,1,1,1,1,1,1,1,
    1,1,1,1,1,1,1,1,1,1,1,1,1,1,1,1,1,1,1,1,1,1,1,1,1,1,1,1,1,1,1,1,1,1,
    1,1,1,1,1,1,1,1,1,1,1,1,1,1,1,1,1,1,4),(0.,1.020408163265E-02,
    2.040816326531E-02,3.061224489796E-02,4.081632653061E-02,
    5.102040816327E-02,6.122448979592E-02,7.142857142857E-02,
    8.163265306122E-02,9.183673469388E-02,0.102040816327,0.112244897959,
    0.122448979592,0.132653061224,0.142857142857,0.15306122449,
    0.163265306122,0.173469387755,0.183673469388,0.19387755102,
    0.204081632653,0.214285714286,0.224489795918,0.234693877551,
    0.244897959184,0.255102040816,0.265306122449,0.275510204082,
    0.285714285714,0.295918367347,0.30612244898,0.316326530612,
    0.326530612245,0.336734693878,0.34693877551,0.357142857143,
    0.367346938776,0.377551020408,0.387755102041,0.397959183673,
    0.408163265306,0.418367346939,0.428571428571,0.438775510204,
    0.448979591837,0.459183673469,0.469387755102,0.479591836735,
    0.489795918367,0.5,0.510204081633,0.520408163265,0.530612244898,
    0.540816326531,0.551020408163,0.561224489796,0.571428571429,
    0.581632653061,0.591836734694,0.602040816327,0.612244897959,
    0.622448979592,0.632653061224,0.642857142857,0.65306122449,
    0.663265306122,0.673469387755,0.683673469388,0.69387755102,
    0.704081632653,0.714285714286,0.724489795918,0.734693877551,
    0.744897959184,0.755102040816,0.765306122449,0.775510204082,
    0.785714285714,0.795918367347,0.80612244898,0.816326530612,
    0.826530612245,0.836734693878,0.84693877551,0.857142857143,
    0.867346938776,0.877551020408,0.887755102041,0.897959183673,
    0.908163265306,0.918367346939,0.928571428571,0.938775510204,
    0.948979591837,0.959183673469,0.969387755102,0.979591836735,
    0.989795918367,1.),.QUASI_UNIFORM_KNOTS.);
#292 = CARTESIAN_POINT('',(4.658203125,0.,0.));
#293 = CARTESIAN_POINT('',(5.81162109375,0.938573417347,0.));
#294 = CARTESIAN_POINT('',(6.9650390625,1.576190107822,0.));
#295 = CARTESIAN_POINT('',(8.11845703125,2.133245456097,0.));
#296 = CARTESIAN_POINT('',(9.271875,2.643044951703,0.));
#297 = CARTESIAN_POINT('',(10.42529296875,3.119913477217,0.));
#298 = CARTESIAN_POINT('',(11.5787109375,3.571739200017,0.));
#299 = CARTESIAN_POINT('',(12.73212890625,4.003471975645,0.));
#300 = CARTESIAN_POINT('',(13.885546875,4.418484715741,0.));
#301 = CARTESIAN_POINT('',(15.03896484375,4.819210917297,0.));
#302 = CARTESIAN_POINT('',(16.1923828125,5.20748172201,0.));
#303 = CARTESIAN_POINT('',(17.34580078125,5.584720235984,0.));
#304 = CARTESIAN_POINT('',(18.49921875,5.952061113693,0.));
#305 = CARTESIAN_POINT('',(19.65263671875,6.310428009325,0.));
#306 = CARTESIAN_POINT('',(20.8060546875,6.66058584958,0.));
#307 = CARTESIAN_POINT('',(21.95947265625,7.003177331346,0.));
#308 = CARTESIAN_POINT('',(23.112890625,7.338749141061,0.));
#309 = CARTESIAN_POINT('',(24.26630859375,7.667771252556,0.));
#310 = CARTESIAN_POINT('',(25.4197265625,7.990651430451,0.));
#311 = CARTESIAN_POINT('',(26.57314453125,8.307746330488,0.));
#312 = CARTESIAN_POINT('',(27.7265625,8.61937013225,0.));
#313 = CARTESIAN_POINT('',(28.87998046875,8.925801348636,0.));
#314 = CARTESIAN_POINT('',(30.0333984375,9.227288265447,0.));
#315 = CARTESIAN_POINT('',(31.18681640625,9.524053336197,0.));
#316 = CARTESIAN_POINT('',(32.340234375,9.816296769321,0.));
#317 = CARTESIAN_POINT('',(33.49365234375,10.104199483407,0.));
#318 = CARTESIAN_POINT('',(34.6470703125,10.387925562415,0.));
#319 = CARTESIAN_POINT('',(35.80048828125,10.667624311209,0.));
#320 = CARTESIAN_POINT('',(36.95390625,10.94343198865,0.));
#321 = CARTESIAN_POINT('',(38.10732421875,11.215473278292,0.));
#322 = CARTESIAN_POINT('',(39.2607421875,11.483862543855,0.));
#323 = CARTESIAN_POINT('',(40.41416015625,11.748704906867,0.));
#324 = CARTESIAN_POINT('',(41.567578125,12.010097176326,0.));
#325 = CARTESIAN_POINT('',(42.72099609375,12.268128654468,0.));
#326 = CARTESIAN_POINT('',(43.8744140625,12.522881838139,0.));
#327 = CARTESIAN_POINT('',(45.02783203125,12.774433031726,0.));
#328 = CARTESIAN_POINT('',(46.18125,13.022852884742,0.));
#329 = CARTESIAN_POINT('',(47.33466796875,13.268206864887,0.));
#330 = CARTESIAN_POINT('',(48.4880859375,13.510555675609,0.));
#331 = CARTESIAN_POINT('',(49.64150390625,13.749955625659,0.));
#332 = CARTESIAN_POINT('',(50.794921875,13.98645895697,0.));
#333 = CARTESIAN_POINT('',(51.94833984375,14.220114136172,0.));
#334 = CARTESIAN_POINT('',(53.1017578125,14.450966114254,0.));
#335 = CARTESIAN_POINT('',(54.25517578125,14.679056558197,0.));
#336 = CARTESIAN_POINT('',(55.40859375,14.904424057834,0.));
#337 = CARTESIAN_POINT('',(56.56201171875,15.127104310733,0.));
#338 = CARTESIAN_POINT('',(57.7154296875,15.347130287491,0.));
#339 = CARTESIAN_POINT('',(58.86884765625,15.564532379487,0.));
#340 = CARTESIAN_POINT('',(60.022265625,15.779338530861,0.));
#341 = CARTESIAN_POINT('',(61.17568359375,15.991574356242,0.));
#342 = CARTESIAN_POINT('',(62.3291015625,16.20126324552,0.));
#343 = CARTESIAN_POINT('',(63.48251953125,16.4084264568,0.));
#344 = CARTESIAN_POINT('',(64.6359375,16.613083198494,0.));
#345 = CARTESIAN_POINT('',(65.78935546875,16.815250701376,0.));
#346 = CARTESIAN_POINT('',(66.9427734375,17.014944281298,0.));
#347 = CARTESIAN_POINT('',(68.09619140625,17.212177393161,0.));
#348 = CARTESIAN_POINT('',(69.249609375,17.406961676626,0.));
#349 = CARTESIAN_POINT('',(70.40302734375,17.599306993954,0.));
#350 = CARTESIAN_POINT('',(71.5564453125,17.7892214603,0.));
#351 = CARTESIAN_POINT('',(72.70986328125,17.976711466682,0.));
#352 = CARTESIAN_POINT('',(73.86328125,18.161781695775,0.));
#353 = CARTESIAN_POINT('',(75.01669921875,18.34443513062,0.));
#354 = CARTESIAN_POINT('',(76.1701171875,18.524673056236,0.));
#355 = CARTESIAN_POINT('',(77.32353515625,18.702495054076,0.));
#356 = CARTESIAN_POINT('',(78.476953125,18.877898989161,0.));
#357 = CARTESIAN_POINT('',(79.63037109375,19.050880989661,0.));
#358 = CARTESIAN_POINT('',(80.7837890625,19.221435418593,0.));
#359 = CARTESIAN_POINT('',(81.93720703125,19.389554837211,0.));
#360 = CARTESIAN_POINT('',(83.090625,19.555229959544,0.));
#361 = CARTESIAN_POINT('',(84.24404296875,19.718449597427,0.));
#362 = CARTESIAN_POINT('',(85.3974609375,19.879200595207,0.));
#363 = CARTESIAN_POINT('',(86.55087890625,20.037467753152,0.));
#364 = CARTESIAN_POINT('',(87.704296875,20.193233738405,0.));
#365 = CARTESIAN_POINT('',(88.85771484375,20.346478982064,0.));
#366 = CARTESIAN_POINT('',(90.0111328125,20.497181560731,0.));
#367 = CARTESIAN_POINT('',(91.16455078125,20.645317060508,0.));
#368 = CARTESIAN_POINT('',(92.31796875,20.790858421047,0.));
#369 = CARTESIAN_POINT('',(93.47138671875,20.933775756748,0.));
#370 = CARTESIAN_POINT('',(94.6248046875,21.074036151603,0.));
#371 = CARTESIAN_POINT('',(95.77822265625,21.211603423424,0.));
#372 = CARTESIAN_POINT('',(96.931640625,21.34643785228,0.));
#373 = CARTESIAN_POINT('',(98.08505859375,21.478495866715,0.));
#374 = CARTESIAN_POINT('',(99.2384765625,21.607729679866,0.));
#375 = CARTESIAN_POINT('',(100.39189453125,21.73408686558,0.));
#376 = CARTESIAN_POINT('',(101.5453125,21.85750986209,0.));
#377 = CARTESIAN_POINT('',(102.69873046875,21.977935387427,0.));
#378 = CARTESIAN_POINT('',(103.8521484375,22.095293746207,0.));
#379 = CARTESIAN_POINT('',(105.00556640625,22.209508001328,0.));
#380 = CARTESIAN_POINT('',(106.158984375,22.320492975661,0.));
#381 = CARTESIAN_POINT('',(107.31240234375,22.428154037033,0.));
#382 = CARTESIAN_POINT('',(108.4658203125,22.532385602958,0.));
#383 = CARTESIAN_POINT('',(109.61923828125,22.633069277104,0.));
#384 = CARTESIAN_POINT('',(110.77265625,22.730071492915,0.));
#385 = CARTESIAN_POINT('',(111.92607421875,22.823240483913,0.));
#386 = CARTESIAN_POINT('',(113.0794921875,22.912402311774,0.));
#387 = CARTESIAN_POINT('',(114.23291015625,22.997355538641,0.));
#388 = CARTESIAN_POINT('',(115.386328125,23.077863883063,0.));
#389 = CARTESIAN_POINT('',(116.53974609375,23.153645755358,0.));
#390 = CARTESIAN_POINT('',(117.6931640625,23.224358721457,0.));
#391 = CARTESIAN_POINT('',(118.84658203125,23.289575199681,0.));
#392 = CARTESIAN_POINT('',(120.,23.5,0.));
#393 = ORIENTED_EDGE('',*,*,#271,.F.);
#394 = ORIENTED_EDGE('',*,*,#288,.F.);
#395 = SURFACE_OF_REVOLUTION('',#396,#498);
#396 = B_SPLINE_CURVE_WITH_KNOTS('',3,(#397,#398,#399,#400,#401,#402,
    #403,#404,#405,#406,#407,#408,#409,#410,#411,#412,#413,#414,#415,
    #416,#417,#418,#419,#420,#421,#422,#423,#424,#425,#426,#427,#428,
    #429,#430,#431,#432,#433,#434,#435,#436,#437,#438,#439,#440,#441,
    #442,#443,#444,#445,#446,#447,#448,#449,#450,#451,#452,#453,#454,
    #455,#456,#457,#458,#459,#460,#461,#462,#463,#464,#465,#466,#467,
    #468,#469,#470,#471,#472,#473,#474,#475,#476,#477,#478,#479,#480,
    #481,#482,#483,#484,#485,#486,#487,#488,#489,#490,#491,#492,#493,
    #494,#495,#496,#497),.UNSPECIFIED.,.F.,.F.,(4,1,1,1,1,1,1,1,1,1,1,1,
    1,1,1,1,1,1,1,1,1,1,1,1,1,1,1,1,1,1,1,1,1,1,1,1,1,1,1,1,1,1,1,1,1,1,
    1,1,1,1,1,1,1,1,1,1,1,1,1,1,1,1,1,1,1,1,1,1,1,1,1,1,1,1,1,1,1,1,1,1,
    1,1,1,1,1,1,1,1,1,1,1,1,1,1,1,1,1,1,4),(0.,1.020408163265E-02,
    2.040816326531E-02,3.061224489796E-02,4.081632653061E-02,
    5.102040816327E-02,6.122448979592E-02,7.142857142857E-02,
    8.163265306122E-02,9.183673469388E-02,0.102040816327,0.112244897959,
    0.122448979592,0.132653061224,0.142857142857,0.15306122449,
    0.163265306122,0.173469387755,0.183673469388,0.19387755102,
    0.204081632653,0.214285714286,0.224489795918,0.234693877551,
    0.244897959184,0.255102040816,0.265306122449,0.275510204082,
    0.285714285714,0.295918367347,0.30612244898,0.316326530612,
    0.326530612245,0.336734693878,0.34693877551,0.357142857143,
    0.367346938776,0.377551020408,0.387755102041,0.397959183673,
    0.408163265306,0.418367346939,0.428571428571,0.438775510204,
    0.448979591837,0.459183673469,0.469387755102,0.479591836735,
    0.489795918367,0.5,0.510204081633,0.520408163265,0.530612244898,
    0.540816326531,0.551020408163,0.561224489796,0.571428571429,
    0.581632653061,0.591836734694,0.602040816327,0.612244897959,
    0.622448979592,0.632653061224,0.642857142857,0.65306122449,
    0.663265306122,0.673469387755,0.683673469388,0.69387755102,
    0.704081632653,0.714285714286,0.724489795918,0.734693877551,
    0.744897959184,0.755102040816,0.765306122449,0.775510204082,
    0.785714285714,0.795918367347,0.80612244898,0.816326530612,
    0.826530612245,0.836734693878,0.84693877551,0.857142857143,
    0.867346938776,0.877551020408,0.887755102041,0.897959183673,
    0.908163265306,0.918367346939,0.928571428571,0.938775510204,
    0.948979591837,0.959183673469,0.969387755102,0.979591836735,
    0.989795918367,1.),.QUASI_UNIFORM_KNOTS.);
#397 = CARTESIAN_POINT('',(4.658203125,0.,0.));
#398 = CARTESIAN_POINT('',(5.81162109375,0.938573417347,0.));
#399 = CARTESIAN_POINT('',(6.9650390625,1.576190107822,0.));
#400 = CARTESIAN_POINT('',(8.11845703125,2.133245456097,0.));
#401 = CARTESIAN_POINT('',(9.271875,2.643044951703,0.));
#402 = CARTESIAN_POINT('',(10.42529296875,3.119913477217,0.));
#403 = CARTESIAN_POINT('',(11.5787109375,3.571739200017,0.));
#404 = CARTESIAN_POINT('',(12.73212890625,4.003471975645,0.));
#405 = CARTESIAN_POINT('',(13.885546875,4.418484715741,0.));
#406 = CARTESIAN_POINT('',(15.03896484375,4.819210917297,0.));
#407 = CARTESIAN_POINT('',(16.1923828125,5.20748172201,0.));
#408 = CARTESIAN_POINT('',(17.34580078125,5.584720235984,0.));
#409 = CARTESIAN_POINT('',(18.49921875,5.952061113693,0.));
#410 = CARTESIAN_POINT('',(19.65263671875,6.310428009325,0.));
#411 = CARTESIAN_POINT('',(20.8060546875,6.66058584958,0.));
#412 = CARTESIAN_POINT('',(21.95947265625,7.003177331346,0.));
#413 = CARTESIAN_POINT('',(23.112890625,7.338749141061,0.));
#414 = CARTESIAN_POINT('',(24.26630859375,7.667771252556,0.));
#415 = CARTESIAN_POINT('',(25.4197265625,7.990651430451,0.));
#416 = CARTESIAN_POINT('',(26.57314453125,8.307746330488,0.));
#417 = CARTESIAN_POINT('',(27.7265625,8.61937013225,0.));
#418 = CARTESIAN_POINT('',(28.87998046875,8.925801348636,0.));
#419 = CARTESIAN_POINT('',(30.0333984375,9.227288265447,0.));
#420 = CARTESIAN_POINT('',(31.18681640625,9.524053336197,0.));
#421 = CARTESIAN_POINT('',(32.340234375,9.816296769321,0.));
#422 = CARTESIAN_POINT('',(33.49365234375,10.104199483407,0.));
#423 = CARTESIAN_POINT('',(34.6470703125,10.387925562415,0.));
#424 = CARTESIAN_POINT('',(35.80048828125,10.667624311209,0.));
#425 = CARTESIAN_POINT('',(36.95390625,10.94343198865,0.));
#426 = CARTESIAN_POINT('',(38.10732421875,11.215473278292,0.));
#427 = CARTESIAN_POINT('',(39.2607421875,11.483862543855,0.));
#428 = CARTESIAN_POINT('',(40.41416015625,11.748704906867,0.));
#429 = CARTESIAN_POINT('',(41.567578125,12.010097176326,0.));
#430 = CARTESIAN_POINT('',(42.72099609375,12.268128654468,0.));
#431 = CARTESIAN_POINT('',(43.8744140625,12.522881838139,0.));
#432 = CARTESIAN_POINT('',(45.02783203125,12.774433031726,0.));
#433 = CARTESIAN_POINT('',(46.18125,13.022852884742,0.));
#434 = CARTESIAN_POINT('',(47.33466796875,13.268206864887,0.));
#435 = CARTESIAN_POINT('',(48.4880859375,13.510555675609,0.));
#436 = CARTESIAN_POINT('',(49.64150390625,13.749955625659,0.));
#437 = CARTESIAN_POINT('',(50.794921875,13.98645895697,0.));
#438 = CARTESIAN_POINT('',(51.94833984375,14.220114136172,0.));
#439 = CARTESIAN_POINT('',(53.1017578125,14.450966114254,0.));
#440 = CARTESIAN_POINT('',(54.25517578125,14.679056558197,0.));
#441 = CARTESIAN_POINT('',(55.40859375,14.904424057834,0.));
#442 = CARTESIAN_POINT('',(56.56201171875,15.127104310733,0.));
#443 = CARTESIAN_POINT('',(57.7154296875,15.347130287491,0.));
#444 = CARTESIAN_POINT('',(58.86884765625,15.564532379487,0.));
#445 = CARTESIAN_POINT('',(60.022265625,15.779338530861,0.));
#446 = CARTESIAN_POINT('',(61.17568359375,15.991574356242,0.));
#447 = CARTESIAN_POINT('',(62.3291015625,16.20126324552,0.));
#448 = CARTESIAN_POINT('',(63.48251953125,16.4084264568,0.));
#449 = CARTESIAN_POINT('',(64.6359375,16.613083198494,0.));
#450 = CARTESIAN_POINT('',(65.78935546875,16.815250701376,0.));
#451 = CARTESIAN_POINT('',(66.9427734375,17.014944281298,0.));
#452 = CARTESIAN_POINT('',(68.09619140625,17.212177393161,0.));
#453 = CARTESIAN_POINT('',(69.249609375,17.406961676626,0.));
#454 = CARTESIAN_POINT('',(70.40302734375,17.599306993954,0.));
#455 = CARTESIAN_POINT('',(71.5564453125,17.7892214603,0.));
#456 = CARTESIAN_POINT('',(72.70986328125,17.976711466682,0.));
#457 = CARTESIAN_POINT('',(73.86328125,18.161781695775,0.));
#458 = CARTESIAN_POINT('',(75.01669921875,18.34443513062,0.));
#459 = CARTESIAN_POINT('',(76.1701171875,18.524673056236,0.));
#460 = CARTESIAN_POINT('',(77.32353515625,18.702495054076,0.));
#461 = CARTESIAN_POINT('',(78.476953125,18.877898989161,0.));
#462 = CARTESIAN_POINT('',(79.63037109375,19.050880989661,0.));
#463 = CARTESIAN_POINT('',(80.7837890625,19.221435418593,0.));
#464 = CARTESIAN_POINT('',(81.93720703125,19.389554837211,0.));
#465 = CARTESIAN_POINT('',(83.090625,19.555229959544,0.));
#466 = CARTESIAN_POINT('',(84.24404296875,19.718449597427,0.));
#467 = CARTESIAN_POINT('',(85.3974609375,19.879200595207,0.));
#468 = CARTESIAN_POINT('',(86.55087890625,20.037467753152,0.));
#469 = CARTESIAN_POINT('',(87.704296875,20.193233738405,0.));
#470 = CARTESIAN_POINT('',(88.85771484375,20.346478982064,0.));
#471 = CARTESIAN_POINT('',(90.0111328125,20.497181560731,0.));
#472 = CARTESIAN_POINT('',(91.16455078125,20.645317060508,0.));
#473 = CARTESIAN_POINT('',(92.31796875,20.790858421047,0.));
#474 = CARTESIAN_POINT('',(93.47138671875,20.933775756748,0.));
#475 = CARTESIAN_POINT('',(94.6248046875,21.074036151603,0.));
#476 = CARTESIAN_POINT('',(95.77822265625,21.211603423424,0.));
#477 = CARTESIAN_POINT('',(96.931640625,21.34643785228,0.));
#478 = CARTESIAN_POINT('',(98.08505859375,21.478495866715,0.));
#479 = CARTESIAN_POINT('',(99.2384765625,21.607729679866,0.));
#480 = CARTESIAN_POINT('',(100.39189453125,21.73408686558,0.));
#481 = CARTESIAN_POINT('',(101.5453125,21.85750986209,0.));
#482 = CARTESIAN_POINT('',(102.69873046875,21.977935387427,0.));
#483 = CARTESIAN_POINT('',(103.8521484375,22.095293746207,0.));
#484 = CARTESIAN_POINT('',(105.00556640625,22.209508001328,0.));
#485 = CARTESIAN_POINT('',(106.158984375,22.320492975661,0.));
#486 = CARTESIAN_POINT('',(107.31240234375,22.428154037033,0.));
#487 = CARTESIAN_POINT('',(108.4658203125,22.532385602958,0.));
#488 = CARTESIAN_POINT('',(109.61923828125,22.633069277104,0.));
#489 = CARTESIAN_POINT('',(110.77265625,22.730071492915,0.));
#490 = CARTESIAN_POINT('',(111.92607421875,22.823240483913,0.));
#491 = CARTESIAN_POINT('',(113.0794921875,22.912402311774,0.));
#492 = CARTESIAN_POINT('',(114.23291015625,22.997355538641,0.));
#493 = CARTESIAN_POINT('',(115.386328125,23.077863883063,0.));
#494 = CARTESIAN_POINT('',(116.53974609375,23.153645755358,0.));
#495 = CARTESIAN_POINT('',(117.6931640625,23.224358721457,0.));
#496 = CARTESIAN_POINT('',(118.84658203125,23.289575199681,0.));
#497 = CARTESIAN_POINT('',(120.,23.5,0.));
#498 = AXIS1_PLACEMENT('',#499,#500);
#499 = CARTESIAN_POINT('',(0.,0.,0.));
#500 = DIRECTION('',(1.,0.,0.));
#501 = ( GEOMETRIC_REPRESENTATION_CONTEXT(3) 
GLOBAL_UNCERTAINTY_ASSIGNED_CONTEXT((#505)) GLOBAL_UNIT_ASSIGNED_CONTEXT
((#502,#503,#504)) REPRESENTATION_CONTEXT('Context #1',
  '3D Context with UNIT and UNCERTAINTY') );
#502 = ( LENGTH_UNIT() NAMED_UNIT(*) SI_UNIT(.MILLI.,.METRE.) );
#503 = ( NAMED_UNIT(*) PLANE_ANGLE_UNIT() SI_UNIT($,.RADIAN.) );
#504 = ( NAMED_UNIT(*) SI_UNIT($,.STERADIAN.) SOLID_ANGLE_UNIT() );
#505 = UNCERTAINTY_MEASURE_WITH_UNIT(LENGTH_MEASURE(1.E-07),#502,
  'distance_accuracy_value','confusion accuracy');
#506 = CONTEXT_DEPENDENT_SHAPE_REPRESENTATION(#507,#509);
#507 = ( REPRESENTATION_RELATIONSHIP('','',#36,#10) 
REPRESENTATION_RELATIONSHIP_WITH_TRANSFORMATION(#508) 
SHAPE_REPRESENTATION_RELATIONSHIP() );
#508 = ITEM_DEFINED_TRANSFORMATION('','',#11,#15);
#509 = PRODUCT_DEFINITION_SHAPE('Placement','Placement of an item',#510
  );
#510 = NEXT_ASSEMBLY_USAGE_OCCURRENCE('1','NoseCone','',#5,#31,$);
#511 = PRODUCT_RELATED_PRODUCT_CATEGORY('part',$,(#33));
#512 = SHAPE_DEFINITION_REPRESENTATION(#513,#519);
#513 = PRODUCT_DEFINITION_SHAPE('','',#514);
#514 = PRODUCT_DEFINITION('design','',#515,#518);
#515 = PRODUCT_DEFINITION_FORMATION('','',#516);
#516 = PRODUCT('Body','Body','',(#517));
#517 = PRODUCT_CONTEXT('',#2,'mechanical');
#518 = PRODUCT_DEFINITION_CONTEXT('part definition',#2,'design');
#519 = ADVANCED_BREP_SHAPE_REPRESENTATION('',(#11,#520),#612);
#520 = MANIFOLD_SOLID_BREP('',#521);
#521 = CLOSED_SHELL('',(#522,#555,#588,#600));
#522 = ADVANCED_FACE('',(#523),#550,.T.);
#523 = FACE_BOUND('',#524,.F.);
#524 = EDGE_LOOP('',(#525,#535,#542,#543));
#525 = ORIENTED_EDGE('',*,*,#526,.T.);
#526 = EDGE_CURVE('',#527,#529,#531,.T.);
#527 = VERTEX_POINT('',#528);
#528 = CARTESIAN_POINT('',(-79.5,26.5,0.));
#529 = VERTEX_POINT('',#530);
#530 = CARTESIAN_POINT('',(-29.5,26.5,0.));
#531 = LINE('',#532,#533);
#532 = CARTESIAN_POINT('',(-79.5,26.5,0.));
#533 = VECTOR('',#534,1.);
#534 = DIRECTION('',(1.,0.,0.));
#535 = ORIENTED_EDGE('',*,*,#536,.T.);
#536 = EDGE_CURVE('',#529,#529,#537,.T.);
#537 = CIRCLE('',#538,26.5);
#538 = AXIS2_PLACEMENT_3D('',#539,#540,#541);
#539 = CARTESIAN_POINT('',(-29.5,0.,0.));
#540 = DIRECTION('',(1.,0.,0.));
#541 = DIRECTION('',(0.,1.,0.));
#542 = ORIENTED_EDGE('',*,*,#526,.F.);
#543 = ORIENTED_EDGE('',*,*,#544,.F.);
#544 = EDGE_CURVE('',#527,#527,#545,.T.);
#545 = CIRCLE('',#546,26.5);
#546 = AXIS2_PLACEMENT_3D('',#547,#548,#549);
#547 = CARTESIAN_POINT('',(-79.5,0.,0.));
#548 = DIRECTION('',(1.,0.,0.));
#549 = DIRECTION('',(0.,1.,0.));
#550 = CYLINDRICAL_SURFACE('',#551,26.5);
#551 = AXIS2_PLACEMENT_3D('',#552,#553,#554);
#552 = CARTESIAN_POINT('',(-79.5,0.,0.));
#553 = DIRECTION('',(-1.,-0.,-0.));
#554 = DIRECTION('',(0.,1.,0.));
#555 = ADVANCED_FACE('',(#556),#583,.F.);
#556 = FACE_BOUND('',#557,.T.);
#557 = EDGE_LOOP('',(#558,#568,#575,#576));
#558 = ORIENTED_EDGE('',*,*,#559,.T.);
#559 = EDGE_CURVE('',#560,#562,#564,.T.);
#560 = VERTEX_POINT('',#561);
#561 = CARTESIAN_POINT('',(-79.5,23.5,0.));
#562 = VERTEX_POINT('',#563);
#563 = CARTESIAN_POINT('',(-29.5,23.5,0.));
#564 = LINE('',#565,#566);
#565 = CARTESIAN_POINT('',(-79.5,23.5,0.));
#566 = VECTOR('',#567,1.);
#567 = DIRECTION('',(1.,0.,0.));
#568 = ORIENTED_EDGE('',*,*,#569,.T.);
#569 = EDGE_CURVE('',#562,#562,#570,.T.);
#570 = CIRCLE('',#571,23.5);
#571 = AXIS2_PLACEMENT_3D('',#572,#573,#574);
#572 = CARTESIAN_POINT('',(-29.5,0.,0.));
#573 = DIRECTION('',(1.,0.,0.));
#574 = DIRECTION('',(0.,1.,0.));
#575 = ORIENTED_EDGE('',*,*,#559,.F.);
#576 = ORIENTED_EDGE('',*,*,#577,.F.);
#577 = EDGE_CURVE('',#560,#560,#578,.T.);
#578 = CIRCLE('',#579,23.5);
#579 = AXIS2_PLACEMENT_3D('',#580,#581,#582);
#580 = CARTESIAN_POINT('',(-79.5,0.,0.));
#581 = DIRECTION('',(1.,0.,0.));
#582 = DIRECTION('',(0.,1.,0.));
#583 = CYLINDRICAL_SURFACE('',#584,23.5);
#584 = AXIS2_PLACEMENT_3D('',#585,#586,#587);
#585 = CARTESIAN_POINT('',(-79.5,0.,0.));
#586 = DIRECTION('',(-1.,-0.,-0.));
#587 = DIRECTION('',(0.,1.,0.));
#588 = ADVANCED_FACE('',(#589,#592),#595,.F.);
#589 = FACE_BOUND('',#590,.F.);
#590 = EDGE_LOOP('',(#591));
#591 = ORIENTED_EDGE('',*,*,#544,.T.);
#592 = FACE_BOUND('',#593,.F.);
#593 = EDGE_LOOP('',(#594));
#594 = ORIENTED_EDGE('',*,*,#577,.F.);
#595 = PLANE('',#596);
#596 = AXIS2_PLACEMENT_3D('',#597,#598,#599);
#597 = CARTESIAN_POINT('',(-79.5,0.,0.));
#598 = DIRECTION('',(1.,0.,0.));
#599 = DIRECTION('',(0.,1.,0.));
#600 = ADVANCED_FACE('',(#601,#604),#607,.T.);
#601 = FACE_BOUND('',#602,.T.);
#602 = EDGE_LOOP('',(#603));
#603 = ORIENTED_EDGE('',*,*,#536,.T.);
#604 = FACE_BOUND('',#605,.T.);
#605 = EDGE_LOOP('',(#606));
#606 = ORIENTED_EDGE('',*,*,#569,.F.);
#607 = PLANE('',#608);
#608 = AXIS2_PLACEMENT_3D('',#609,#610,#611);
#609 = CARTESIAN_POINT('',(-29.5,0.,0.));
#610 = DIRECTION('',(1.,0.,0.));
#611 = DIRECTION('',(0.,1.,0.));
#612 = ( GEOMETRIC_REPRESENTATION_CONTEXT(3) 
GLOBAL_UNCERTAINTY_ASSIGNED_CONTEXT((#616)) GLOBAL_UNIT_ASSIGNED_CONTEXT
((#613,#614,#615)) REPRESENTATION_CONTEXT('Context #1',
  '3D Context with UNIT and UNCERTAINTY') );
#613 = ( LENGTH_UNIT() NAMED_UNIT(*) SI_UNIT(.MILLI.,.METRE.) );
#614 = ( NAMED_UNIT(*) PLANE_ANGLE_UNIT() SI_UNIT($,.RADIAN.) );
#615 = ( NAMED_UNIT(*) SI_UNIT($,.STERADIAN.) SOLID_ANGLE_UNIT() );
#616 = UNCERTAINTY_MEASURE_WITH_UNIT(LENGTH_MEASURE(1.E-07),#613,
  'distance_accuracy_value','confusion accuracy');
#617 = CONTEXT_DEPENDENT_SHAPE_REPRESENTATION(#618,#620);
#618 = ( REPRESENTATION_RELATIONSHIP('','',#519,#10) 
REPRESENTATION_RELATIONSHIP_WITH_TRANSFORMATION(#619) 
SHAPE_REPRESENTATION_RELATIONSHIP() );
#619 = ITEM_DEFINED_TRANSFORMATION('','',#11,#19);
#620 = PRODUCT_DEFINITION_SHAPE('Placement','Placement of an item',#621
  );
#621 = NEXT_ASSEMBLY_USAGE_OCCURRENCE('2','Body','',#5,#514,$);
#622 = PRODUCT_RELATED_PRODUCT_CATEGORY('part',$,(#516));
#623 = MECHANICAL_DESIGN_GEOMETRIC_PRESENTATION_REPRESENTATION('',(#624)
  ,#501);
#624 = STYLED_ITEM('color',(#625),#37);
#625 = PRESENTATION_STYLE_ASSIGNMENT((#626,#632));
#626 = SURFACE_STYLE_USAGE(.BOTH.,#627);
#627 = SURFACE_SIDE_STYLE('',(#628));
#628 = SURFACE_STYLE_FILL_AREA(#629);
#629 = FILL_AREA_STYLE('',(#630));
#630 = FILL_AREA_STYLE_COLOUR('',#631);
#631 = COLOUR_RGB('',0.447059003357,0.474510015008,0.501960993452);
#632 = CURVE_STYLE('',#633,POSITIVE_LENGTH_MEASURE(0.1),#634);
#633 = DRAUGHTING_PRE_DEFINED_CURVE_FONT('continuous');
#634 = COLOUR_RGB('',0.447058818107,0.474509808674,0.501960817233);
#635 = MECHANICAL_DESIGN_GEOMETRIC_PRESENTATION_REPRESENTATION('',(#636)
  ,#612);
#636 = STYLED_ITEM('color',(#637),#520);
#637 = PRESENTATION_STYLE_ASSIGNMENT((#638,#643));
#638 = SURFACE_STYLE_USAGE(.BOTH.,#639);
#639 = SURFACE_SIDE_STYLE('',(#640));
#640 = SURFACE_STYLE_FILL_AREA(#641);
#641 = FILL_AREA_STYLE('',(#642));
#642 = FILL_AREA_STYLE_COLOUR('',#631);
#643 = CURVE_STYLE('',#644,POSITIVE_LENGTH_MEASURE(0.1),#645);
#644 = DRAUGHTING_PRE_DEFINED_CURVE_FONT('continuous');
#645 = COLOUR_RGB('',9.803921802644E-02,9.803921802644E-02,
  9.803921802644E-02);
ENDSEC;
END-ISO-10303-21;
